<svg id="svg" version="1.1" xmlns="http://www.w3.org/2000/svg" xmlns:xlink="http://www.w3.org/1999/xlink" width="400" height="107.65171503957784" viewBox="0, 0, 400,107.65171503957784"><g id="svgg"><path id="path0" d="M189.604 28.612 C 189.067 28.703,188.860 28.842,188.080 29.638 C 186.884 30.858,187.162 33.455,188.584 34.334 C 189.991 35.204,192.037 34.979,193.188 33.828 L 194.000 33.016 194.000 31.675 C 194.000 30.937,193.937 30.333,193.860 30.333 C 193.783 30.333,193.636 30.149,193.533 29.923 C 193.091 28.953,191.240 28.335,189.604 28.612 M220.937 28.621 C 220.408 28.700,220.274 28.793,219.346 29.720 C 217.725 31.339,218.783 34.414,221.078 34.758 C 223.716 35.153,225.250 33.995,225.250 31.607 L 225.250 30.297 224.390 29.506 C 223.361 28.560,222.621 28.370,220.937 28.621 M161.583 29.645 C 160.758 29.703,159.920 29.844,159.719 29.958 C 159.519 30.073,159.193 30.167,158.994 30.167 C 158.796 30.167,158.360 30.288,158.025 30.437 C 156.695 31.029,154.906 31.921,154.729 32.081 C 154.625 32.174,154.363 32.360,154.145 32.495 C 153.502 32.894,150.500 35.991,150.500 36.256 C 150.500 36.390,150.444 36.500,150.375 36.501 C 150.071 36.504,148.694 39.276,148.181 40.917 C 147.981 41.558,147.740 42.308,147.645 42.583 C 147.551 42.858,147.408 43.571,147.328 44.167 C 147.248 44.762,147.096 45.813,146.989 46.500 C 146.317 50.839,147.521 56.885,149.893 61.087 C 151.207 63.415,155.796 67.333,157.208 67.333 C 157.295 67.333,157.603 67.435,157.891 67.559 C 160.145 68.525,167.459 68.887,168.917 68.104 C 169.192 67.956,169.579 67.835,169.778 67.834 C 169.977 67.834,170.352 67.728,170.611 67.599 C 170.871 67.470,171.458 67.195,171.917 66.988 C 172.612 66.673,174.398 65.534,175.072 64.976 C 175.810 64.364,176.202 63.937,176.960 62.917 C 177.437 62.275,177.885 61.673,177.955 61.579 C 178.339 61.065,179.116 59.167,179.590 57.583 C 179.830 56.784,179.905 55.790,179.966 52.625 L 180.041 48.667 172.683 48.667 L 165.324 48.667 165.370 50.958 L 165.417 53.250 169.956 53.294 L 174.495 53.339 174.599 53.753 C 175.113 55.800,172.602 60.703,170.449 61.857 C 167.800 63.277,166.354 63.594,163.229 63.439 C 161.338 63.346,161.087 63.278,159.062 62.303 C 157.509 61.555,155.634 59.887,154.888 58.589 C 152.399 54.258,151.622 46.801,153.269 43.058 C 153.396 42.769,153.500 42.427,153.500 42.298 C 153.500 42.169,153.610 41.918,153.745 41.740 C 153.879 41.562,153.992 41.291,153.995 41.137 C 153.998 40.983,154.094 40.757,154.208 40.634 C 154.323 40.512,154.552 40.146,154.717 39.821 C 155.046 39.175,156.369 37.605,157.038 37.066 C 157.754 36.491,159.026 35.666,159.207 35.661 C 159.322 35.658,159.562 35.546,159.740 35.411 C 159.918 35.277,160.188 35.167,160.340 35.167 C 160.491 35.167,160.855 35.047,161.148 34.901 C 161.561 34.695,162.218 34.635,164.083 34.635 C 165.948 34.635,166.606 34.695,167.019 34.901 C 167.312 35.047,167.655 35.167,167.783 35.167 C 168.017 35.167,170.180 36.280,170.333 36.480 C 170.379 36.540,170.678 36.804,170.997 37.066 C 171.316 37.329,171.858 37.928,172.200 38.397 C 172.543 38.866,172.882 39.325,172.953 39.417 C 173.168 39.692,173.833 41.162,173.833 41.361 C 173.833 41.872,174.427 41.989,177.042 41.995 C 180.109 42.001,179.917 42.146,179.411 40.200 C 178.688 37.424,176.085 33.870,173.561 32.213 C 173.214 31.985,170.691 30.738,169.917 30.411 C 168.348 29.749,164.780 29.421,161.583 29.645 M210.667 39.451 C 209.210 39.966,207.422 41.032,207.201 41.518 C 207.175 41.577,206.875 42.003,206.535 42.464 C 206.195 42.926,205.827 43.441,205.717 43.610 C 205.348 44.176,205.172 43.511,205.169 41.542 L 205.167 39.667 202.667 39.667 L 200.167 39.667 200.167 53.838 L 200.167 68.009 202.708 67.963 L 205.250 67.917 205.347 58.917 C 205.441 50.194,205.561 48.174,205.996 48.029 C 206.090 47.998,206.167 47.877,206.167 47.760 C 206.167 47.547,207.299 45.961,207.519 45.866 C 207.583 45.839,207.804 45.670,208.010 45.491 C 208.216 45.313,208.485 45.167,208.609 45.167 C 208.732 45.167,208.833 45.101,208.833 45.020 C 208.833 44.571,210.450 44.259,212.796 44.255 L 215.175 44.250 215.129 41.750 L 215.083 39.250 213.250 39.218 C 211.930 39.195,211.207 39.260,210.667 39.451 M239.167 39.438 C 237.795 39.704,236.188 40.162,235.899 40.369 C 235.798 40.441,235.365 40.687,234.936 40.915 C 234.141 41.337,234.060 41.395,233.333 42.044 C 232.779 42.540,231.833 43.754,231.833 43.970 C 231.833 44.065,231.738 44.242,231.622 44.363 C 230.723 45.301,230.712 49.973,231.607 51.013 C 231.731 51.158,231.835 51.345,231.838 51.430 C 231.851 51.885,234.386 54.167,234.879 54.167 C 235.015 54.167,235.219 54.279,235.333 54.417 C 235.447 54.554,235.652 54.667,235.787 54.667 C 235.922 54.667,236.269 54.768,236.558 54.892 C 237.179 55.158,238.260 55.456,239.417 55.680 C 239.875 55.769,240.700 55.949,241.250 56.080 C 241.800 56.211,242.813 56.444,243.500 56.598 C 250.133 58.084,248.559 64.334,241.552 64.333 C 238.521 64.333,236.780 63.362,235.586 61.006 C 235.103 60.052,235.217 60.083,233.333 60.413 C 232.554 60.549,231.542 60.719,231.083 60.790 C 230.388 60.897,230.241 60.982,230.196 61.301 C 230.146 61.653,230.779 63.475,231.018 63.667 C 231.075 63.712,231.171 63.907,231.230 64.098 C 231.468 64.861,234.166 67.201,235.068 67.428 C 235.307 67.488,235.544 67.604,235.595 67.685 C 235.645 67.767,235.851 67.834,236.052 67.834 C 236.252 67.835,236.612 67.937,236.851 68.062 C 237.090 68.187,237.728 68.344,238.268 68.411 C 239.623 68.578,240.103 69.370,239.517 70.469 C 239.010 71.421,239.358 71.753,241.203 72.073 C 244.220 72.595,243.461 76.184,240.250 76.577 C 239.700 76.644,239.156 76.776,239.042 76.870 C 238.743 77.115,238.757 79.435,239.058 79.551 C 239.398 79.681,242.202 79.416,242.583 79.217 C 242.767 79.122,243.198 78.993,243.542 78.931 C 243.885 78.869,244.167 78.755,244.167 78.677 C 244.167 78.600,244.335 78.492,244.542 78.439 C 246.314 77.980,247.930 74.349,247.084 72.727 C 246.947 72.465,246.835 72.137,246.834 72.000 C 246.829 71.382,245.406 70.360,243.591 69.670 C 242.722 69.339,243.378 68.592,244.690 68.418 C 247.955 67.985,251.308 65.810,252.403 63.417 C 252.570 63.050,252.811 62.538,252.937 62.278 C 253.204 61.730,253.261 58.171,253.010 57.706 C 252.925 57.547,252.688 57.063,252.484 56.631 C 251.587 54.729,248.629 52.826,245.792 52.326 C 245.357 52.250,244.915 52.134,244.810 52.069 C 244.705 52.004,244.124 51.855,243.518 51.737 C 240.486 51.148,239.566 50.898,238.507 50.370 C 235.889 49.066,235.566 46.463,237.802 44.691 C 238.167 44.403,238.550 44.167,238.655 44.167 C 238.759 44.167,239.045 44.035,239.290 43.875 C 240.045 43.380,243.845 43.454,244.804 43.983 C 245.560 44.399,247.167 45.804,247.167 46.048 C 247.167 46.127,247.279 46.303,247.417 46.440 C 247.554 46.578,247.667 46.835,247.667 47.012 C 247.667 47.396,247.784 47.403,248.989 47.099 C 249.499 46.971,250.476 46.781,251.160 46.677 C 252.555 46.466,252.747 46.306,252.404 45.643 C 252.274 45.390,252.167 45.096,252.167 44.988 C 252.167 44.194,250.194 41.857,248.687 40.866 C 246.494 39.424,242.405 38.811,239.167 39.438 M188.000 53.829 L 188.000 68.000 190.542 67.997 C 191.940 67.996,193.178 67.935,193.293 67.862 C 193.458 67.757,193.493 64.821,193.459 53.740 L 193.417 39.750 190.708 39.704 L 188.000 39.658 188.000 53.829 M219.167 53.833 L 219.167 68.000 221.917 68.000 L 224.667 68.000 224.667 53.833 L 224.667 39.667 221.917 39.667 L 219.167 39.667 219.167 53.833 " stroke="none" fill="#04a080" fill-rule="evenodd"></path><path id="path1" d="M45.667 0.167 C 45.667 0.266,45.028 0.333,44.083 0.333 C 42.787 0.333,42.500 0.379,42.500 0.583 C 42.500 0.785,42.241 0.833,41.167 0.833 C 40.093 0.833,39.833 0.882,39.833 1.083 C 39.833 1.269,39.639 1.333,39.083 1.333 C 38.528 1.333,38.333 1.398,38.333 1.583 C 38.333 1.772,38.130 1.833,37.500 1.833 C 36.870 1.833,36.667 1.894,36.667 2.083 C 36.667 2.269,36.472 2.333,35.917 2.333 C 35.361 2.333,35.167 2.398,35.167 2.583 C 35.167 2.769,34.970 2.833,34.401 2.833 C 33.776 2.833,33.620 2.894,33.548 3.167 C 33.478 3.436,33.321 3.500,32.731 3.500 C 32.192 3.500,32.000 3.566,32.000 3.750 C 32.000 3.925,31.824 4.000,31.417 4.000 C 31.009 4.000,30.833 4.075,30.833 4.250 C 30.833 4.417,30.667 4.500,30.333 4.500 C 30.000 4.500,29.833 4.583,29.833 4.750 C 29.833 4.917,29.667 5.000,29.333 5.000 C 29.000 5.000,28.833 5.083,28.833 5.250 C 28.833 5.417,28.666 5.500,28.328 5.500 C 28.050 5.500,27.783 5.604,27.734 5.731 C 27.685 5.859,27.425 6.007,27.156 6.060 C 26.871 6.117,26.667 6.265,26.667 6.412 C 26.667 6.552,26.554 6.667,26.417 6.667 C 26.279 6.667,26.167 6.779,26.167 6.917 C 26.167 7.091,25.991 7.167,25.583 7.167 C 25.176 7.167,25.000 7.242,25.000 7.417 C 25.000 7.573,24.842 7.667,24.578 7.667 C 24.346 7.667,24.113 7.779,24.060 7.917 C 24.008 8.054,23.860 8.167,23.732 8.167 C 23.604 8.167,23.500 8.279,23.500 8.417 C 23.500 8.583,23.333 8.667,23.000 8.667 C 22.685 8.667,22.500 8.752,22.500 8.897 C 22.500 9.024,22.350 9.167,22.167 9.215 C 21.983 9.263,21.833 9.422,21.833 9.568 C 21.833 9.714,21.721 9.833,21.583 9.833 C 21.446 9.833,21.333 9.946,21.333 10.083 C 21.333 10.250,21.167 10.333,20.833 10.333 C 20.500 10.333,20.333 10.417,20.333 10.583 C 20.333 10.721,20.221 10.833,20.083 10.833 C 19.946 10.833,19.833 10.946,19.833 11.083 C 19.833 11.221,19.721 11.333,19.583 11.333 C 19.446 11.333,19.333 11.446,19.333 11.583 C 19.333 11.742,19.173 11.833,18.894 11.833 C 18.473 11.833,17.667 12.496,17.667 12.842 C 17.667 12.929,17.554 13.000,17.417 13.000 C 17.279 13.000,17.167 13.112,17.167 13.250 C 17.167 13.387,17.054 13.500,16.917 13.500 C 16.779 13.500,16.667 13.612,16.667 13.750 C 16.667 13.887,16.554 14.000,16.417 14.000 C 16.279 14.000,16.167 14.112,16.167 14.250 C 16.167 14.387,16.052 14.500,15.911 14.500 C 15.771 14.500,15.613 14.612,15.560 14.750 C 15.508 14.887,15.360 15.000,15.232 15.000 C 15.104 15.000,15.000 15.078,15.000 15.172 C 15.000 15.267,14.775 15.565,14.500 15.833 C 14.225 16.102,14.000 16.400,14.000 16.494 C 14.000 16.589,13.887 16.667,13.750 16.667 C 13.612 16.667,13.500 16.779,13.500 16.917 C 13.500 17.054,13.387 17.167,13.250 17.167 C 13.112 17.167,13.000 17.279,13.000 17.417 C 13.000 17.554,12.887 17.667,12.750 17.667 C 12.612 17.667,12.500 17.770,12.500 17.897 C 12.500 18.024,12.350 18.167,12.167 18.215 C 11.941 18.274,11.833 18.442,11.833 18.734 C 11.833 19.008,11.741 19.167,11.583 19.167 C 11.444 19.167,11.333 19.315,11.333 19.500 C 11.333 19.685,11.222 19.833,11.083 19.833 C 10.946 19.833,10.833 19.946,10.833 20.083 C 10.833 20.221,10.721 20.333,10.583 20.333 C 10.417 20.333,10.333 20.500,10.333 20.833 C 10.333 21.167,10.250 21.333,10.083 21.333 C 9.946 21.333,9.833 21.446,9.833 21.583 C 9.833 21.721,9.714 21.833,9.568 21.833 C 9.422 21.833,9.264 21.978,9.218 22.155 C 9.172 22.332,9.029 22.517,8.900 22.567 C 8.772 22.616,8.667 22.846,8.667 23.078 C 8.667 23.342,8.573 23.500,8.417 23.500 C 8.279 23.500,8.167 23.613,8.167 23.750 C 8.167 23.887,8.054 24.000,7.917 24.000 C 7.750 24.000,7.667 24.167,7.667 24.500 C 7.667 24.833,7.583 25.000,7.417 25.000 C 7.242 25.000,7.167 25.176,7.167 25.583 C 7.167 25.991,7.091 26.167,6.917 26.167 C 6.779 26.167,6.667 26.279,6.667 26.417 C 6.667 26.554,6.560 26.667,6.430 26.667 C 6.300 26.667,6.145 26.885,6.086 27.153 C 6.028 27.420,5.872 27.680,5.740 27.731 C 5.608 27.781,5.500 28.005,5.500 28.227 C 5.500 28.449,5.388 28.674,5.250 28.727 C 5.104 28.783,5.000 29.033,5.000 29.328 C 5.000 29.666,4.917 29.833,4.750 29.833 C 4.583 29.833,4.500 30.000,4.500 30.333 C 4.500 30.667,4.417 30.833,4.250 30.833 C 4.085 30.833,4.000 30.998,4.000 31.316 C 4.000 31.590,3.893 31.839,3.750 31.894 C 3.580 31.959,3.500 32.225,3.500 32.725 C 3.500 33.321,3.437 33.478,3.167 33.548 C 2.904 33.617,2.833 33.776,2.833 34.300 C 2.833 34.737,2.748 34.997,2.583 35.060 C 2.437 35.116,2.333 35.366,2.333 35.661 C 2.333 35.999,2.251 36.167,2.083 36.167 C 1.889 36.167,1.833 36.389,1.833 37.167 C 1.833 37.944,1.778 38.167,1.583 38.167 C 1.394 38.167,1.333 38.370,1.333 39.000 C 1.333 39.630,1.272 39.833,1.083 39.833 C 0.882 39.833,0.833 40.093,0.833 41.167 C 0.833 42.241,0.785 42.500,0.583 42.500 C 0.379 42.500,0.333 42.787,0.333 44.083 C 0.333 45.028,0.266 45.667,0.167 45.667 C 0.058 45.667,0.000 48.389,0.000 53.500 C 0.000 58.611,0.058 61.333,0.167 61.333 C 0.266 61.333,0.333 61.972,0.333 62.917 C 0.333 64.213,0.379 64.500,0.583 64.500 C 0.785 64.500,0.833 64.759,0.833 65.833 C 0.833 66.907,0.882 67.167,1.083 67.167 C 1.269 67.167,1.333 67.362,1.333 67.922 C 1.333 68.439,1.412 68.707,1.583 68.773 C 1.766 68.843,1.833 69.132,1.833 69.851 C 1.833 70.613,1.889 70.833,2.083 70.833 C 2.263 70.833,2.333 71.016,2.333 71.480 C 2.333 71.851,2.440 72.214,2.583 72.333 C 2.721 72.447,2.833 72.726,2.833 72.953 C 2.833 73.224,2.947 73.394,3.167 73.452 C 3.436 73.522,3.500 73.679,3.500 74.269 C 3.500 74.808,3.566 75.000,3.750 75.000 C 3.925 75.000,4.000 75.176,4.000 75.583 C 4.000 75.991,4.075 76.167,4.250 76.167 C 4.417 76.167,4.500 76.333,4.500 76.667 C 4.500 77.000,4.583 77.167,4.750 77.167 C 4.917 77.167,5.000 77.334,5.000 77.672 C 5.000 77.967,5.104 78.217,5.250 78.273 C 5.387 78.326,5.500 78.551,5.500 78.773 C 5.500 78.995,5.604 79.217,5.731 79.266 C 5.859 79.315,6.007 79.575,6.060 79.844 C 6.117 80.129,6.265 80.333,6.412 80.333 C 6.584 80.333,6.667 80.496,6.667 80.833 C 6.667 81.167,6.750 81.333,6.917 81.333 C 7.056 81.333,7.167 81.481,7.167 81.667 C 7.167 81.852,7.278 82.000,7.417 82.000 C 7.583 82.000,7.667 82.167,7.667 82.500 C 7.667 82.833,7.750 83.000,7.917 83.000 C 8.054 83.000,8.167 83.112,8.167 83.250 C 8.167 83.387,8.279 83.500,8.417 83.500 C 8.583 83.500,8.667 83.667,8.667 84.000 C 8.667 84.333,8.750 84.500,8.917 84.500 C 9.054 84.500,9.167 84.620,9.167 84.766 C 9.167 84.912,9.317 85.070,9.500 85.118 C 9.736 85.180,9.833 85.346,9.833 85.686 C 9.833 86.002,9.919 86.167,10.083 86.167 C 10.221 86.167,10.333 86.279,10.333 86.417 C 10.333 86.554,10.446 86.667,10.583 86.667 C 10.721 86.667,10.833 86.779,10.833 86.917 C 10.833 87.054,10.946 87.167,11.083 87.167 C 11.221 87.167,11.333 87.279,11.333 87.417 C 11.333 87.554,11.446 87.667,11.583 87.667 C 11.742 87.667,11.833 87.827,11.833 88.106 C 11.833 88.527,12.496 89.333,12.842 89.333 C 12.929 89.333,13.000 89.446,13.000 89.583 C 13.000 89.721,13.112 89.833,13.250 89.833 C 13.387 89.833,13.500 89.946,13.500 90.083 C 13.500 90.221,13.612 90.333,13.750 90.333 C 13.887 90.333,14.000 90.446,14.000 90.583 C 14.000 90.721,14.112 90.833,14.250 90.833 C 14.387 90.833,14.500 90.948,14.500 91.089 C 14.500 91.229,14.613 91.387,14.750 91.440 C 14.887 91.492,15.000 91.640,15.000 91.768 C 15.000 91.896,15.104 92.000,15.232 92.000 C 15.360 92.000,15.508 92.112,15.560 92.250 C 15.613 92.388,15.771 92.500,15.911 92.500 C 16.052 92.500,16.167 92.612,16.167 92.750 C 16.167 92.888,16.279 93.000,16.417 93.000 C 16.554 93.000,16.667 93.112,16.667 93.250 C 16.667 93.388,16.779 93.500,16.917 93.500 C 17.054 93.500,17.167 93.612,17.167 93.750 C 17.167 93.888,17.279 94.000,17.417 94.000 C 17.554 94.000,17.667 94.079,17.667 94.175 C 17.667 94.471,18.563 95.156,18.958 95.161 C 19.178 95.164,19.333 95.270,19.333 95.417 C 19.333 95.554,19.446 95.667,19.583 95.667 C 19.721 95.667,19.833 95.779,19.833 95.917 C 19.833 96.054,19.946 96.167,20.083 96.167 C 20.221 96.167,20.333 96.279,20.333 96.417 C 20.333 96.554,20.446 96.667,20.583 96.667 C 20.721 96.667,20.833 96.779,20.833 96.917 C 20.833 97.081,20.998 97.167,21.314 97.167 C 21.654 97.167,21.820 97.264,21.882 97.500 C 21.930 97.683,22.088 97.833,22.234 97.833 C 22.380 97.833,22.500 97.946,22.500 98.083 C 22.500 98.250,22.667 98.333,23.000 98.333 C 23.333 98.333,23.500 98.417,23.500 98.583 C 23.500 98.721,23.613 98.833,23.750 98.833 C 23.887 98.833,24.000 98.946,24.000 99.083 C 24.000 99.250,24.167 99.333,24.500 99.333 C 24.833 99.333,25.000 99.417,25.000 99.583 C 25.000 99.722,25.148 99.833,25.333 99.833 C 25.519 99.833,25.667 99.944,25.667 100.083 C 25.667 100.250,25.833 100.333,26.167 100.333 C 26.500 100.333,26.667 100.417,26.667 100.583 C 26.667 100.748,26.831 100.833,27.147 100.833 C 27.488 100.833,27.653 100.931,27.715 101.167 C 27.778 101.409,27.942 101.500,28.318 101.500 C 28.665 101.500,28.833 101.582,28.833 101.750 C 28.833 101.917,29.000 102.000,29.333 102.000 C 29.667 102.000,29.833 102.083,29.833 102.250 C 29.833 102.417,30.000 102.500,30.333 102.500 C 30.667 102.500,30.833 102.583,30.833 102.750 C 30.833 102.925,31.009 103.000,31.417 103.000 C 31.824 103.000,32.000 103.075,32.000 103.250 C 32.000 103.435,32.194 103.500,32.750 103.500 C 33.306 103.500,33.500 103.565,33.500 103.750 C 33.500 103.912,33.663 104.000,33.963 104.000 C 34.220 104.000,34.553 104.148,34.711 104.333 C 34.896 104.549,35.203 104.667,35.582 104.667 C 35.991 104.667,36.167 104.742,36.167 104.917 C 36.167 105.106,36.370 105.167,37.000 105.167 C 37.630 105.167,37.833 105.228,37.833 105.417 C 37.833 105.611,38.056 105.667,38.833 105.667 C 39.611 105.667,39.833 105.722,39.833 105.917 C 39.833 106.113,40.065 106.167,40.917 106.167 C 41.769 106.167,42.000 106.220,42.000 106.417 C 42.000 106.621,42.287 106.667,43.583 106.667 C 44.880 106.667,45.167 106.712,45.167 106.917 C 45.167 107.129,45.602 107.167,48.083 107.167 C 49.917 107.167,51.000 107.229,51.000 107.333 C 51.000 107.444,100.611 107.500,199.500 107.500 C 298.389 107.500,348.000 107.444,348.000 107.333 C 348.000 107.229,349.000 107.167,350.667 107.167 C 352.926 107.167,353.333 107.128,353.333 106.917 C 353.333 106.713,353.612 106.667,354.839 106.667 C 356.023 106.667,356.364 106.613,356.440 106.417 C 356.510 106.234,356.799 106.167,357.518 106.167 C 358.280 106.167,358.500 106.111,358.500 105.917 C 358.500 105.722,358.723 105.667,359.505 105.667 C 360.245 105.667,360.536 105.601,360.606 105.417 C 360.671 105.248,360.935 105.167,361.417 105.167 C 361.898 105.167,362.162 105.085,362.227 104.917 C 362.291 104.750,362.553 104.667,363.010 104.667 C 363.558 104.667,363.716 104.599,363.785 104.333 C 363.847 104.097,364.012 104.000,364.353 104.000 C 364.669 104.000,364.833 103.914,364.833 103.750 C 364.833 103.561,365.037 103.500,365.667 103.500 C 366.296 103.500,366.500 103.439,366.500 103.250 C 366.500 103.083,366.667 103.000,367.000 103.000 C 367.333 103.000,367.500 102.917,367.500 102.750 C 367.500 102.583,367.667 102.500,368.005 102.500 C 368.301 102.500,368.550 102.396,368.606 102.250 C 368.661 102.107,368.910 102.000,369.184 102.000 C 369.502 102.000,369.667 101.915,369.667 101.750 C 369.667 101.583,369.833 101.500,370.167 101.500 C 370.556 101.500,370.667 101.426,370.667 101.167 C 370.667 100.897,370.778 100.833,371.250 100.833 C 371.657 100.833,371.833 100.758,371.833 100.583 C 371.833 100.417,372.000 100.333,372.333 100.333 C 372.667 100.333,372.833 100.250,372.833 100.083 C 372.833 99.946,372.946 99.833,373.083 99.833 C 373.221 99.833,373.333 99.721,373.333 99.583 C 373.333 99.417,373.500 99.333,373.833 99.333 C 374.167 99.333,374.333 99.250,374.333 99.083 C 374.333 98.944,374.481 98.833,374.667 98.833 C 374.852 98.833,375.000 98.722,375.000 98.583 C 375.000 98.427,375.158 98.333,375.422 98.333 C 375.654 98.333,375.887 98.221,375.940 98.083 C 375.992 97.946,376.140 97.833,376.268 97.833 C 376.396 97.833,376.500 97.683,376.500 97.500 C 376.500 97.241,376.611 97.167,377.000 97.167 C 377.333 97.167,377.500 97.083,377.500 96.917 C 377.500 96.778,377.648 96.667,377.833 96.667 C 378.019 96.667,378.167 96.556,378.167 96.417 C 378.167 96.279,378.279 96.167,378.417 96.167 C 378.554 96.167,378.667 96.054,378.667 95.917 C 378.667 95.773,378.817 95.667,379.020 95.667 C 379.385 95.667,380.667 94.515,380.667 94.186 C 380.667 94.084,380.817 94.000,381.000 94.000 C 381.185 94.000,381.333 93.889,381.333 93.750 C 381.333 93.612,381.446 93.500,381.583 93.500 C 381.721 93.500,381.833 93.388,381.833 93.250 C 381.833 93.112,381.946 93.000,382.083 93.000 C 382.221 93.000,382.333 92.888,382.333 92.750 C 382.333 92.612,382.446 92.500,382.583 92.500 C 382.721 92.500,382.833 92.388,382.833 92.250 C 382.833 92.112,382.946 92.000,383.083 92.000 C 383.221 92.000,383.333 91.888,383.333 91.750 C 383.333 91.612,383.446 91.500,383.583 91.500 C 383.722 91.500,383.833 91.352,383.833 91.167 C 383.833 90.944,383.944 90.833,384.167 90.833 C 384.352 90.833,384.500 90.722,384.500 90.583 C 384.500 90.446,384.613 90.333,384.750 90.333 C 384.887 90.333,385.000 90.221,385.000 90.083 C 385.000 89.946,385.113 89.833,385.250 89.833 C 385.387 89.833,385.500 89.721,385.500 89.583 C 385.500 89.446,385.613 89.333,385.750 89.333 C 385.887 89.333,386.000 89.229,386.000 89.101 C 386.000 88.973,386.113 88.826,386.250 88.773 C 386.387 88.720,386.500 88.562,386.500 88.422 C 386.500 88.282,386.613 88.167,386.750 88.167 C 386.917 88.167,387.000 88.000,387.000 87.667 C 387.000 87.278,387.074 87.167,387.333 87.167 C 387.519 87.167,387.667 87.056,387.667 86.917 C 387.667 86.779,387.779 86.667,387.917 86.667 C 388.054 86.667,388.167 86.562,388.167 86.434 C 388.167 86.307,388.279 86.159,388.417 86.106 C 388.554 86.054,388.667 85.821,388.667 85.589 C 388.667 85.325,388.760 85.167,388.917 85.167 C 389.056 85.167,389.167 85.019,389.167 84.833 C 389.167 84.648,389.278 84.500,389.417 84.500 C 389.583 84.500,389.667 84.333,389.667 84.000 C 389.667 83.667,389.750 83.500,389.917 83.500 C 390.054 83.500,390.167 83.396,390.167 83.269 C 390.167 83.143,390.317 83.000,390.500 82.952 C 390.721 82.894,390.833 82.724,390.833 82.450 C 390.833 82.222,390.946 81.992,391.083 81.940 C 391.221 81.887,391.333 81.729,391.333 81.589 C 391.333 81.448,391.446 81.333,391.583 81.333 C 391.750 81.333,391.833 81.167,391.833 80.833 C 391.833 80.500,391.917 80.333,392.083 80.333 C 392.250 80.333,392.333 80.167,392.333 79.833 C 392.333 79.500,392.417 79.333,392.583 79.333 C 392.750 79.333,392.833 79.167,392.833 78.833 C 392.833 78.500,392.917 78.333,393.083 78.333 C 393.258 78.333,393.333 78.157,393.333 77.750 C 393.333 77.278,393.397 77.167,393.667 77.167 C 393.926 77.167,394.000 77.056,394.000 76.667 C 394.000 76.333,394.083 76.167,394.250 76.167 C 394.415 76.167,394.500 76.002,394.500 75.684 C 394.500 75.410,394.607 75.161,394.750 75.106 C 394.921 75.041,395.000 74.773,395.000 74.255 C 395.000 73.695,395.065 73.500,395.250 73.500 C 395.417 73.500,395.500 73.333,395.500 73.000 C 395.500 72.667,395.583 72.500,395.750 72.500 C 395.939 72.500,396.000 72.296,396.000 71.667 C 396.000 71.037,396.061 70.833,396.250 70.833 C 396.435 70.833,396.500 70.639,396.500 70.083 C 396.500 69.553,396.568 69.333,396.732 69.333 C 397.047 69.333,397.167 68.962,397.167 67.986 C 397.167 67.369,397.228 67.167,397.417 67.167 C 397.613 67.167,397.667 66.935,397.667 66.083 C 397.667 65.231,397.720 65.000,397.917 65.000 C 398.120 65.000,398.167 64.724,398.167 63.518 C 398.167 62.354,398.220 62.015,398.417 61.940 C 398.624 61.860,398.667 61.402,398.667 59.255 C 398.667 57.065,398.705 56.667,398.917 56.667 C 399.130 56.667,399.167 56.204,399.167 53.500 C 399.167 50.796,399.130 50.333,398.917 50.333 C 398.705 50.333,398.667 49.935,398.667 47.745 C 398.667 45.598,398.624 45.140,398.417 45.060 C 398.221 44.985,398.167 44.648,398.167 43.500 C 398.167 42.352,398.113 42.015,397.917 41.940 C 397.733 41.869,397.667 41.578,397.667 40.839 C 397.667 40.056,397.611 39.833,397.417 39.833 C 397.234 39.833,397.166 39.643,397.164 39.125 C 397.161 38.176,397.010 37.667,396.731 37.667 C 396.568 37.667,396.500 37.444,396.500 36.917 C 396.500 36.361,396.435 36.167,396.250 36.167 C 396.065 36.167,396.000 35.972,396.000 35.411 C 396.000 34.894,395.921 34.626,395.750 34.560 C 395.607 34.506,395.500 34.257,395.500 33.982 C 395.500 33.665,395.415 33.500,395.250 33.500 C 395.065 33.500,395.000 33.305,395.000 32.745 C 395.000 32.227,394.921 31.959,394.750 31.894 C 394.607 31.839,394.500 31.590,394.500 31.316 C 394.500 30.998,394.415 30.833,394.250 30.833 C 394.083 30.833,394.000 30.667,394.000 30.333 C 394.000 29.944,393.926 29.833,393.667 29.833 C 393.397 29.833,393.333 29.722,393.333 29.250 C 393.333 28.843,393.258 28.667,393.083 28.667 C 392.917 28.667,392.833 28.500,392.833 28.167 C 392.833 27.833,392.750 27.667,392.583 27.667 C 392.417 27.667,392.333 27.500,392.333 27.167 C 392.333 26.833,392.250 26.667,392.083 26.667 C 391.919 26.667,391.833 26.502,391.833 26.184 C 391.833 25.910,391.726 25.661,391.583 25.606 C 391.446 25.554,391.333 25.396,391.333 25.255 C 391.333 25.115,391.221 25.000,391.083 25.000 C 390.925 25.000,390.833 24.841,390.833 24.568 C 390.833 24.276,390.725 24.107,390.500 24.048 C 390.317 24.000,390.167 23.857,390.167 23.731 C 390.167 23.604,390.054 23.500,389.917 23.500 C 389.749 23.500,389.667 23.333,389.667 22.995 C 389.667 22.699,389.563 22.450,389.417 22.394 C 389.279 22.341,389.167 22.193,389.167 22.066 C 389.167 21.938,389.054 21.833,388.917 21.833 C 388.760 21.833,388.667 21.675,388.667 21.411 C 388.667 21.179,388.554 20.946,388.417 20.894 C 388.279 20.841,388.167 20.693,388.167 20.566 C 388.167 20.438,388.054 20.333,387.917 20.333 C 387.779 20.333,387.667 20.221,387.667 20.083 C 387.667 19.944,387.519 19.833,387.333 19.833 C 387.111 19.833,387.000 19.722,387.000 19.500 C 387.000 19.315,386.889 19.167,386.750 19.167 C 386.583 19.167,386.500 19.000,386.500 18.667 C 386.500 18.333,386.417 18.167,386.250 18.167 C 386.113 18.167,386.000 18.054,386.000 17.917 C 386.000 17.779,385.887 17.667,385.750 17.667 C 385.613 17.667,385.500 17.554,385.500 17.417 C 385.500 17.279,385.387 17.167,385.250 17.167 C 385.113 17.167,385.000 17.054,385.000 16.917 C 385.000 16.779,384.896 16.667,384.769 16.667 C 384.643 16.667,384.500 16.517,384.452 16.333 C 384.404 16.150,384.245 16.000,384.099 16.000 C 383.953 16.000,383.833 15.887,383.833 15.750 C 383.833 15.612,383.721 15.500,383.583 15.500 C 383.446 15.500,383.333 15.387,383.333 15.250 C 383.333 15.112,383.221 15.000,383.083 15.000 C 382.946 15.000,382.833 14.887,382.833 14.750 C 382.833 14.612,382.721 14.500,382.583 14.500 C 382.446 14.500,382.333 14.387,382.333 14.250 C 382.333 14.112,382.221 14.000,382.083 14.000 C 381.946 14.000,381.833 13.887,381.833 13.750 C 381.833 13.612,381.762 13.500,381.675 13.500 C 381.446 13.500,380.667 12.745,380.667 12.523 C 380.667 12.418,380.562 12.333,380.434 12.333 C 380.307 12.333,380.159 12.221,380.106 12.083 C 380.054 11.946,379.821 11.833,379.589 11.833 C 379.325 11.833,379.167 11.740,379.167 11.583 C 379.167 11.446,379.054 11.333,378.917 11.333 C 378.779 11.333,378.667 11.221,378.667 11.083 C 378.667 10.946,378.562 10.833,378.434 10.833 C 378.307 10.833,378.159 10.721,378.106 10.583 C 378.054 10.446,377.896 10.333,377.755 10.333 C 377.615 10.333,377.500 10.221,377.500 10.083 C 377.500 9.925,377.341 9.833,377.068 9.833 C 376.776 9.833,376.607 9.725,376.548 9.500 C 376.500 9.317,376.365 9.167,376.248 9.167 C 376.131 9.167,375.992 9.054,375.940 8.917 C 375.887 8.779,375.654 8.667,375.422 8.667 C 375.158 8.667,375.000 8.573,375.000 8.417 C 375.000 8.278,374.852 8.167,374.667 8.167 C 374.481 8.167,374.333 8.056,374.333 7.917 C 374.333 7.750,374.167 7.667,373.833 7.667 C 373.500 7.667,373.333 7.583,373.333 7.417 C 373.333 7.279,373.221 7.167,373.083 7.167 C 372.946 7.167,372.833 7.054,372.833 6.917 C 372.833 6.755,372.671 6.667,372.373 6.667 C 372.094 6.667,371.832 6.536,371.705 6.333 C 371.588 6.145,371.317 6.000,371.082 6.000 C 370.824 6.000,370.667 5.905,370.667 5.750 C 370.667 5.583,370.500 5.500,370.167 5.500 C 369.833 5.500,369.667 5.417,369.667 5.250 C 369.667 5.085,369.502 5.000,369.184 5.000 C 368.910 5.000,368.661 4.893,368.606 4.750 C 368.550 4.604,368.301 4.500,368.005 4.500 C 367.667 4.500,367.500 4.417,367.500 4.250 C 367.500 4.083,367.333 4.000,367.000 4.000 C 366.667 4.000,366.500 3.917,366.500 3.750 C 366.500 3.561,366.296 3.500,365.667 3.500 C 364.944 3.500,364.833 3.456,364.833 3.167 C 364.833 2.910,364.722 2.833,364.351 2.833 C 364.076 2.833,363.828 2.726,363.773 2.583 C 363.707 2.412,363.439 2.333,362.922 2.333 C 362.362 2.333,362.167 2.269,362.167 2.083 C 362.167 1.889,361.944 1.833,361.167 1.833 C 360.389 1.833,360.167 1.778,360.167 1.583 C 360.167 1.394,359.963 1.333,359.333 1.333 C 358.704 1.333,358.500 1.272,358.500 1.083 C 358.500 0.883,358.250 0.833,357.250 0.833 C 356.250 0.833,356.000 0.783,356.000 0.583 C 356.000 0.379,355.713 0.333,354.417 0.333 C 353.472 0.333,352.833 0.266,352.833 0.167 C 352.833 0.056,301.528 0.000,199.250 0.000 C 96.972 0.000,45.667 0.056,45.667 0.167 M191.833 28.215 C 192.629 28.502,193.833 29.294,193.833 29.531 C 193.833 29.637,193.948 29.851,194.089 30.006 C 194.652 30.629,194.448 33.076,193.763 33.912 C 191.899 36.187,188.404 35.758,187.058 33.089 C 186.613 32.207,186.565 30.673,186.979 30.535 C 187.082 30.500,187.167 30.329,187.167 30.155 C 187.167 28.892,190.207 27.629,191.833 28.215 M223.333 28.266 C 224.185 28.544,225.496 29.686,225.505 30.158 C 225.508 30.300,225.621 30.562,225.755 30.740 C 225.890 30.918,226.000 31.335,226.000 31.667 C 226.000 31.998,225.890 32.415,225.755 32.593 C 225.621 32.771,225.508 33.044,225.505 33.200 C 225.498 33.584,224.401 34.625,223.594 35.016 C 222.161 35.709,220.196 35.317,219.021 34.106 C 218.532 33.601,218.391 33.275,218.050 31.863 C 217.999 31.650,218.035 31.313,218.132 31.113 C 218.228 30.913,218.351 30.550,218.403 30.306 C 218.547 29.641,220.002 28.333,220.599 28.333 C 220.809 28.333,221.027 28.258,221.083 28.167 C 221.239 27.915,222.419 27.967,223.333 28.266 M166.417 29.167 C 166.473 29.258,166.909 29.334,167.385 29.334 C 167.861 29.335,168.450 29.440,168.695 29.567 C 168.939 29.695,169.446 29.851,169.820 29.914 C 170.194 29.978,170.500 30.094,170.500 30.174 C 170.500 30.253,170.760 30.367,171.077 30.427 C 171.395 30.486,171.742 30.640,171.848 30.767 C 171.954 30.895,172.172 31.000,172.333 31.000 C 172.494 31.000,172.719 31.113,172.833 31.250 C 172.947 31.387,173.146 31.500,173.276 31.500 C 173.405 31.500,173.554 31.613,173.606 31.750 C 173.659 31.887,173.780 32.000,173.876 32.000 C 174.268 32.000,177.333 34.834,177.333 35.196 C 177.333 35.259,177.427 35.411,177.542 35.534 C 177.986 36.014,178.500 36.831,178.500 37.059 C 178.500 37.190,178.612 37.341,178.750 37.394 C 178.887 37.446,179.000 37.670,179.000 37.891 C 179.000 38.112,179.105 38.379,179.233 38.486 C 179.360 38.592,179.517 38.957,179.581 39.298 C 179.644 39.638,179.755 39.992,179.827 40.083 C 179.899 40.175,180.010 40.611,180.074 41.052 C 180.259 42.327,180.243 42.333,176.846 42.333 C 173.744 42.333,173.500 42.278,173.500 41.570 C 173.500 41.371,173.387 41.114,173.250 41.000 C 173.112 40.886,173.000 40.661,173.000 40.500 C 173.000 40.339,172.887 40.114,172.750 40.000 C 172.612 39.886,172.500 39.696,172.500 39.579 C 172.500 38.979,169.919 36.516,168.833 36.079 C 168.696 36.024,168.358 35.872,168.083 35.743 C 167.808 35.613,167.246 35.457,166.833 35.397 C 166.421 35.337,165.995 35.218,165.886 35.133 C 165.393 34.745,160.538 35.284,160.030 35.783 C 159.909 35.903,159.674 36.000,159.509 36.000 C 159.343 36.000,159.114 36.112,159.000 36.250 C 158.886 36.387,158.719 36.500,158.629 36.500 C 158.281 36.500,155.833 38.628,155.833 38.931 C 155.833 39.011,155.168 39.998,155.000 40.167 C 154.774 40.395,154.166 41.686,154.161 41.950 C 154.158 42.115,154.046 42.396,153.911 42.574 C 153.777 42.751,153.667 43.091,153.667 43.328 C 153.667 43.565,153.537 43.945,153.378 44.171 C 152.960 44.766,152.937 53.207,153.351 53.844 C 153.496 54.067,153.659 54.586,153.713 54.996 C 153.768 55.407,153.892 55.769,153.989 55.802 C 154.087 55.834,154.167 55.991,154.167 56.149 C 154.167 56.307,154.277 56.582,154.411 56.760 C 154.546 56.938,154.658 57.175,154.661 57.286 C 154.681 58.047,157.483 61.105,158.692 61.685 C 160.331 62.471,160.820 62.667,161.149 62.667 C 161.349 62.667,161.695 62.787,161.919 62.933 C 162.404 63.251,166.443 63.221,166.850 62.897 C 166.978 62.794,167.358 62.661,167.694 62.600 C 169.545 62.267,172.571 59.796,173.071 58.208 C 173.136 58.002,173.259 57.833,173.345 57.833 C 173.430 57.833,173.500 57.625,173.500 57.370 C 173.500 57.116,173.605 56.758,173.733 56.575 C 173.861 56.392,173.992 55.719,174.025 55.080 L 174.083 53.917 169.677 53.872 C 165.870 53.834,165.229 53.791,164.968 53.555 C 164.573 53.197,164.509 48.838,164.894 48.519 C 165.058 48.383,167.261 48.342,172.769 48.373 L 180.417 48.417 180.400 52.167 C 180.383 55.859,180.205 57.517,179.698 58.719 C 179.589 58.977,179.500 59.263,179.500 59.354 C 179.500 59.595,178.516 61.539,178.238 61.846 C 178.107 61.991,178.000 62.166,178.000 62.235 C 178.000 62.411,176.877 63.801,176.169 64.500 C 174.752 65.902,173.917 66.501,172.333 67.255 C 170.673 68.046,170.370 68.167,170.050 68.167 C 169.876 68.167,169.642 68.258,169.531 68.369 C 169.420 68.480,168.898 68.623,168.373 68.686 C 167.847 68.750,167.079 68.890,166.667 68.998 C 165.681 69.257,161.426 69.160,161.138 68.872 C 161.026 68.759,160.592 68.666,160.175 68.666 C 159.758 68.665,159.202 68.553,158.939 68.416 C 158.677 68.279,158.347 68.167,158.208 68.167 C 158.068 68.167,157.645 68.023,157.268 67.848 C 156.892 67.673,156.227 67.373,155.792 67.181 C 155.356 66.989,155.000 66.775,155.000 66.706 C 155.000 66.638,154.775 66.482,154.501 66.360 C 153.834 66.065,150.833 63.397,150.833 63.099 C 150.833 63.056,150.627 62.794,150.375 62.518 C 150.123 62.242,149.729 61.656,149.500 61.216 C 149.271 60.776,149.041 60.379,148.989 60.333 C 148.804 60.171,148.167 58.724,148.167 58.468 C 148.167 58.325,148.054 58.114,147.917 58.000 C 147.779 57.886,147.664 57.558,147.661 57.271 C 147.658 56.985,147.546 56.604,147.411 56.426 C 147.277 56.249,147.167 55.759,147.167 55.339 C 147.167 54.879,147.050 54.410,146.875 54.162 C 146.433 53.538,146.434 44.691,146.875 43.883 C 147.035 43.590,147.167 43.060,147.167 42.707 C 147.167 42.353,147.277 41.918,147.411 41.740 C 147.546 41.562,147.658 41.182,147.661 40.895 C 147.664 40.609,147.779 40.281,147.917 40.167 C 148.054 40.053,148.167 39.835,148.167 39.683 C 148.167 39.532,148.268 39.260,148.392 39.079 C 148.516 38.898,148.667 38.544,148.728 38.292 C 148.790 38.040,148.913 37.833,149.003 37.833 C 149.093 37.833,149.167 37.695,149.167 37.526 C 149.167 37.357,149.317 37.083,149.500 36.917 C 149.683 36.751,149.833 36.514,149.833 36.391 C 149.833 36.268,149.903 36.167,149.989 36.167 C 150.074 36.167,150.193 36.014,150.252 35.827 C 150.534 34.938,155.057 31.000,155.796 31.000 C 155.886 31.000,156.053 30.887,156.167 30.750 C 156.281 30.613,156.536 30.500,156.733 30.500 C 156.931 30.500,157.240 30.397,157.421 30.271 C 157.602 30.146,157.999 29.988,158.303 29.922 C 158.607 29.856,159.057 29.697,159.303 29.569 C 159.549 29.440,160.139 29.335,160.615 29.334 C 161.091 29.334,161.527 29.258,161.583 29.167 C 161.644 29.069,162.637 29.000,164.000 29.000 C 165.363 29.000,166.356 29.069,166.417 29.167 M215.529 39.109 C 215.880 39.428,215.990 43.896,215.661 44.511 C 215.472 44.864,214.114 44.985,213.917 44.667 C 213.789 44.461,211.221 44.444,211.095 44.648 C 211.045 44.729,210.722 44.845,210.377 44.905 C 209.705 45.022,208.729 45.452,208.366 45.792 C 208.243 45.906,208.091 46.000,208.028 46.000 C 207.842 46.000,206.500 47.787,206.500 48.034 C 206.500 48.158,206.369 48.445,206.208 48.671 C 205.940 49.050,205.912 49.861,205.864 58.717 L 205.811 68.350 205.395 68.508 C 204.521 68.841,200.205 68.705,199.833 68.333 C 199.505 68.005,199.500 67.778,199.500 53.886 L 199.500 39.771 199.862 39.386 C 200.209 39.017,200.331 39.000,202.643 39.000 C 205.705 39.000,205.833 39.078,205.833 40.936 C 205.833 41.602,205.908 42.193,206.000 42.250 C 206.092 42.307,206.167 42.264,206.167 42.156 C 206.167 41.819,208.064 40.101,208.843 39.733 C 209.250 39.541,209.846 39.262,210.167 39.112 C 211.022 38.714,215.090 38.712,215.529 39.109 M245.691 39.118 C 245.824 39.228,246.247 39.369,246.630 39.430 C 247.013 39.491,247.413 39.645,247.517 39.771 C 247.622 39.897,247.880 40.000,248.090 40.000 C 248.300 40.000,248.497 40.056,248.528 40.125 C 248.558 40.194,248.898 40.464,249.283 40.725 C 250.152 41.315,251.387 42.556,251.689 43.142 C 251.814 43.385,252.010 43.643,252.125 43.717 C 252.239 43.790,252.333 44.024,252.333 44.238 C 252.333 44.451,252.438 44.712,252.565 44.818 C 252.893 45.090,253.075 46.458,252.825 46.760 C 252.701 46.909,252.315 47.000,251.805 47.000 C 251.353 47.000,250.781 47.103,250.533 47.228 C 250.286 47.354,249.551 47.507,248.901 47.569 L 247.718 47.682 247.276 47.102 C 247.032 46.783,246.833 46.457,246.833 46.378 C 246.833 46.244,245.831 45.176,245.273 44.715 C 245.138 44.604,244.816 44.462,244.556 44.399 C 244.296 44.335,243.935 44.182,243.755 44.058 C 243.283 43.735,240.507 43.750,240.074 44.078 C 239.896 44.213,239.595 44.325,239.405 44.328 C 238.951 44.335,237.290 45.577,237.105 46.048 C 237.025 46.251,236.882 46.584,236.787 46.788 C 236.472 47.464,237.348 49.500,237.954 49.500 C 238.071 49.500,238.167 49.561,238.167 49.636 C 238.167 49.815,239.828 50.500,240.263 50.500 C 240.450 50.500,240.749 50.610,240.926 50.745 C 241.107 50.881,241.618 50.992,242.083 50.996 C 242.542 50.999,243.131 51.114,243.394 51.251 C 243.657 51.388,244.144 51.500,244.477 51.501 C 244.811 51.502,245.275 51.602,245.510 51.725 C 245.744 51.847,246.254 51.998,246.642 52.060 C 247.030 52.122,247.476 52.238,247.632 52.317 C 247.789 52.397,248.517 52.748,249.250 53.099 C 251.578 54.213,253.500 56.571,253.500 58.313 C 253.500 58.680,253.575 59.027,253.667 59.083 C 253.758 59.140,253.833 59.477,253.833 59.833 C 253.833 60.189,253.758 60.527,253.667 60.583 C 253.575 60.640,253.500 61.036,253.500 61.464 C 253.500 63.059,251.266 66.319,249.698 67.013 C 249.406 67.142,249.167 67.299,249.167 67.361 C 249.167 67.423,248.942 67.523,248.667 67.583 C 248.392 67.644,248.167 67.756,248.167 67.833 C 248.167 67.910,247.923 68.027,247.625 68.091 C 247.327 68.156,246.935 68.312,246.755 68.438 C 246.574 68.564,246.109 68.667,245.723 68.667 C 245.336 68.667,244.977 68.736,244.925 68.821 C 244.872 68.905,244.605 69.024,244.330 69.084 C 243.765 69.208,243.818 69.500,244.406 69.500 C 244.619 69.500,244.886 69.612,245.000 69.750 C 245.114 69.887,245.281 70.000,245.371 70.000 C 246.862 70.000,248.436 74.420,247.422 75.760 C 247.287 75.938,247.175 76.216,247.172 76.379 C 247.163 76.897,245.256 78.717,244.333 79.087 C 244.196 79.143,243.858 79.289,243.583 79.413 C 243.308 79.537,242.677 79.680,242.179 79.731 C 241.682 79.783,241.199 79.901,241.104 79.996 C 240.869 80.231,238.717 80.216,238.569 79.977 C 238.371 79.656,238.290 77.616,238.451 77.000 C 238.598 76.435,238.633 76.414,239.545 76.332 C 240.062 76.285,240.579 76.154,240.693 76.040 C 240.807 75.926,241.078 75.833,241.296 75.833 C 241.514 75.833,241.916 75.610,242.189 75.336 C 243.365 74.161,242.205 72.336,240.279 72.331 C 239.033 72.327,238.960 72.243,239.036 70.898 C 239.071 70.267,239.159 69.622,239.232 69.465 C 239.336 69.241,239.263 69.159,238.890 69.080 C 238.630 69.025,238.286 68.909,238.127 68.823 C 237.968 68.737,237.589 68.667,237.284 68.667 C 236.980 68.667,236.585 68.557,236.407 68.422 C 236.229 68.287,235.954 68.175,235.796 68.172 C 234.542 68.149,230.500 64.667,230.500 63.610 C 230.500 63.481,230.387 63.281,230.250 63.167 C 230.112 63.053,230.000 62.753,230.000 62.500 C 230.000 62.247,229.891 61.780,229.758 61.462 C 229.465 60.761,229.647 60.500,230.430 60.500 C 230.721 60.500,231.229 60.387,231.558 60.250 C 231.908 60.103,232.671 60.000,233.401 60.000 C 234.087 60.000,234.693 59.925,234.750 59.833 C 235.045 59.355,236.000 60.046,236.000 60.738 C 236.000 60.961,236.112 61.255,236.250 61.393 C 236.387 61.530,236.501 61.704,236.503 61.780 C 236.507 61.975,237.118 62.512,238.083 63.168 L 238.917 63.734 241.583 63.741 L 244.250 63.749 245.167 63.185 C 246.179 62.562,246.604 62.144,247.042 61.342 C 247.353 60.770,247.442 59.500,247.170 59.500 C 247.080 59.500,246.961 59.318,246.905 59.095 C 246.849 58.873,246.614 58.554,246.383 58.387 C 246.152 58.220,245.863 57.989,245.741 57.873 C 245.619 57.757,245.292 57.617,245.013 57.561 C 244.735 57.505,244.422 57.356,244.317 57.230 C 244.203 57.093,243.804 57.000,243.333 57.000 C 242.832 57.000,242.465 56.908,242.333 56.750 C 242.195 56.584,241.812 56.498,241.188 56.494 C 240.672 56.491,240.063 56.381,239.833 56.250 C 239.604 56.119,239.112 56.009,238.740 56.006 C 238.368 56.003,237.918 55.890,237.740 55.755 C 237.562 55.621,237.178 55.508,236.887 55.505 C 236.596 55.502,236.245 55.387,236.107 55.250 C 235.970 55.112,235.781 55.000,235.687 55.000 C 234.672 55.000,232.074 52.829,231.343 51.369 C 231.126 50.937,230.848 50.384,230.724 50.141 C 230.390 49.482,230.410 45.615,230.750 45.333 C 230.887 45.219,231.000 44.925,231.000 44.680 C 231.000 44.435,231.113 44.088,231.250 43.909 C 231.388 43.730,231.727 43.264,232.003 42.873 C 232.999 41.464,235.662 39.732,237.333 39.408 C 237.654 39.346,237.992 39.236,238.083 39.163 C 238.554 38.792,245.251 38.752,245.691 39.118 M193.463 39.259 L 193.833 39.519 193.831 53.801 C 193.829 62.491,193.766 68.181,193.670 68.333 C 193.437 68.704,188.235 68.797,187.750 68.439 C 187.422 68.197,187.416 67.974,187.372 53.985 L 187.328 39.777 187.693 39.389 C 188.164 38.887,192.784 38.784,193.463 39.259 M224.827 39.322 C 224.943 39.537,225.000 44.372,225.000 53.833 C 225.000 63.295,224.943 68.129,224.827 68.344 C 224.668 68.643,224.453 68.667,221.917 68.667 C 219.380 68.667,219.166 68.643,219.006 68.344 C 218.891 68.129,218.833 63.295,218.833 53.833 C 218.833 44.372,218.891 39.537,219.006 39.322 C 219.166 39.024,219.380 39.000,221.917 39.000 C 224.453 39.000,224.668 39.024,224.827 39.322 " stroke="none" fill="#040404" fill-rule="evenodd"></path><path id="path2" d="M189.203 28.309 C 188.350 28.637,187.167 29.710,187.167 30.155 C 187.167 30.329,187.082 30.500,186.979 30.535 C 186.876 30.569,186.756 30.969,186.713 31.424 C 186.454 34.167,189.821 36.257,192.449 34.984 C 193.432 34.509,194.380 33.339,194.287 32.718 C 194.218 32.262,194.216 32.261,194.192 32.678 C 194.156 33.292,193.069 34.482,192.208 34.851 C 189.031 36.213,185.901 33.176,187.382 30.169 C 188.771 27.347,193.902 27.916,194.210 30.925 L 194.277 31.583 194.305 30.895 C 194.323 30.459,194.242 30.132,194.083 30.000 C 193.946 29.886,193.833 29.690,193.833 29.565 C 193.833 29.300,192.677 28.520,191.833 28.215 C 191.061 27.937,190.080 27.972,189.203 28.309 M221.083 28.167 C 221.019 28.271,221.370 28.333,222.021 28.333 C 225.967 28.333,227.113 33.289,223.528 34.852 C 221.702 35.648,219.204 34.724,218.520 33.000 C 218.360 32.597,218.354 32.595,218.344 32.958 C 218.314 34.005,220.324 35.333,221.938 35.333 C 223.411 35.333,225.489 34.091,225.505 33.200 C 225.508 33.044,225.621 32.771,225.755 32.593 C 225.890 32.415,226.000 31.998,226.000 31.667 C 226.000 31.335,225.890 30.918,225.755 30.740 C 225.621 30.562,225.508 30.300,225.505 30.158 C 225.482 29.029,221.624 27.292,221.083 28.167 M219.648 28.831 C 219.337 29.104,219.039 29.329,218.985 29.331 C 218.788 29.336,218.289 30.451,218.380 30.681 C 218.439 30.828,218.479 30.779,218.487 30.550 C 218.503 30.098,220.014 28.552,220.537 28.452 C 220.893 28.383,220.894 28.377,220.564 28.356 C 220.370 28.344,219.958 28.557,219.648 28.831 M161.583 29.167 C 161.527 29.258,161.091 29.334,160.615 29.334 C 160.139 29.335,159.535 29.447,159.273 29.584 C 159.010 29.721,158.673 29.839,158.523 29.846 C 158.350 29.855,158.326 29.890,158.458 29.944 C 158.573 29.990,158.985 29.913,159.375 29.774 C 161.261 29.099,167.512 29.126,168.800 29.816 C 168.990 29.917,169.266 30.000,169.415 30.000 C 171.327 30.000,176.050 33.497,177.842 36.240 C 178.204 36.794,178.500 37.151,178.500 37.034 C 178.500 36.827,177.967 35.994,177.542 35.534 C 177.427 35.411,177.333 35.259,177.333 35.196 C 177.333 34.834,174.268 32.000,173.876 32.000 C 173.780 32.000,173.659 31.887,173.606 31.750 C 173.554 31.613,173.405 31.500,173.276 31.500 C 173.146 31.500,172.947 31.387,172.833 31.250 C 172.719 31.113,172.494 31.000,172.333 31.000 C 172.172 31.000,171.954 30.895,171.848 30.767 C 171.742 30.640,171.395 30.486,171.077 30.427 C 170.760 30.367,170.500 30.253,170.500 30.174 C 170.500 30.094,170.194 29.978,169.820 29.914 C 169.446 29.851,168.939 29.695,168.695 29.567 C 168.450 29.440,167.861 29.335,167.385 29.334 C 166.909 29.334,166.473 29.258,166.417 29.167 C 166.356 29.069,165.363 29.000,164.000 29.000 C 162.637 29.000,161.644 29.069,161.583 29.167 M157.426 30.255 C 157.015 30.567,157.286 30.563,157.833 30.250 C 158.075 30.112,158.145 30.012,158.000 30.011 C 157.862 30.011,157.604 30.121,157.426 30.255 M156.167 30.750 C 156.053 30.887,155.886 31.000,155.796 31.000 C 155.057 31.000,150.534 34.938,150.252 35.827 C 150.193 36.014,150.074 36.167,149.989 36.167 C 149.903 36.167,149.833 36.268,149.833 36.391 C 149.833 36.514,149.683 36.751,149.500 36.917 C 149.317 37.083,149.167 37.357,149.167 37.526 C 149.167 37.695,149.093 37.833,149.003 37.833 C 148.913 37.833,148.790 38.040,148.728 38.292 C 148.667 38.544,148.516 38.898,148.392 39.079 C 148.268 39.260,148.167 39.532,148.167 39.683 C 148.167 39.835,148.054 40.053,147.917 40.167 C 147.779 40.281,147.664 40.609,147.661 40.895 C 147.658 41.182,147.546 41.562,147.411 41.740 C 147.277 41.918,147.172 42.331,147.178 42.657 C 147.190 43.293,147.205 43.256,147.820 41.083 C 148.451 38.855,150.081 36.076,151.816 34.273 C 153.361 32.667,154.406 31.898,156.607 30.751 C 157.020 30.535,157.036 30.502,156.729 30.501 C 156.534 30.500,156.281 30.613,156.167 30.750 M218.111 31.111 C 217.946 31.276,217.981 32.046,218.167 32.333 C 218.284 32.514,218.329 32.364,218.331 31.792 C 218.333 30.988,218.309 30.913,218.111 31.111 M161.220 35.147 C 158.632 35.849,155.904 38.015,154.682 40.338 C 154.136 41.375,153.161 43.901,153.172 44.249 C 153.184 44.628,153.667 43.735,153.667 43.333 C 153.667 43.093,153.777 42.751,153.911 42.574 C 154.046 42.396,154.158 42.115,154.161 41.950 C 154.166 41.686,154.774 40.395,155.000 40.167 C 155.168 39.998,155.833 39.011,155.833 38.931 C 155.833 38.628,158.281 36.500,158.629 36.500 C 158.719 36.500,158.886 36.387,159.000 36.250 C 159.114 36.112,159.343 36.000,159.509 36.000 C 159.674 36.000,159.909 35.903,160.030 35.783 C 160.538 35.284,165.393 34.745,165.886 35.133 C 165.995 35.218,166.421 35.337,166.833 35.397 C 167.246 35.457,167.808 35.613,168.083 35.743 C 168.358 35.872,168.696 36.024,168.833 36.079 C 169.292 36.263,169.757 36.579,170.254 37.042 C 170.525 37.294,170.796 37.500,170.855 37.500 C 170.915 37.500,171.250 37.875,171.600 38.333 C 171.949 38.792,172.300 39.167,172.380 39.167 C 172.683 39.167,171.228 37.546,170.261 36.807 C 167.894 34.998,164.241 34.327,161.220 35.147 M178.724 37.745 C 178.830 37.971,178.942 38.081,178.974 37.989 C 179.056 37.752,178.873 37.333,178.688 37.333 C 178.600 37.333,178.616 37.515,178.724 37.745 M179.492 39.665 C 179.735 40.419,179.940 40.840,179.971 40.649 C 180.001 40.465,179.952 40.225,179.861 40.116 C 179.771 40.006,179.644 39.638,179.581 39.298 C 179.517 38.957,179.376 38.604,179.266 38.513 C 179.157 38.423,179.258 38.941,179.492 39.665 M210.167 39.112 C 209.846 39.262,209.250 39.541,208.843 39.733 C 208.064 40.101,206.167 41.819,206.167 42.156 C 206.167 42.264,206.092 42.307,206.000 42.250 C 205.908 42.193,205.833 41.602,205.833 40.936 C 205.833 39.078,205.705 39.000,202.643 39.000 C 200.331 39.000,200.209 39.017,199.862 39.386 L 199.500 39.771 199.500 53.886 C 199.500 67.778,199.505 68.005,199.833 68.333 C 200.205 68.705,204.521 68.841,205.395 68.508 L 205.811 68.350 205.864 58.717 C 205.912 49.861,205.940 49.050,206.208 48.671 C 206.369 48.445,206.500 48.158,206.500 48.034 C 206.500 47.787,207.842 46.000,208.028 46.000 C 208.091 46.000,208.243 45.906,208.366 45.792 C 208.729 45.452,209.705 45.022,210.377 44.905 C 210.722 44.845,211.045 44.729,211.095 44.648 C 211.221 44.444,213.789 44.461,213.917 44.667 C 214.114 44.985,215.472 44.864,215.661 44.511 C 215.990 43.896,215.880 39.428,215.529 39.109 C 215.090 38.712,211.022 38.714,210.167 39.112 M238.667 38.947 C 238.438 38.994,238.175 39.093,238.083 39.168 C 237.992 39.242,237.617 39.358,237.250 39.425 C 236.541 39.555,235.712 40.000,236.180 40.000 C 236.319 40.000,236.505 39.933,236.592 39.851 C 236.679 39.769,237.088 39.624,237.500 39.528 C 237.912 39.433,238.550 39.276,238.917 39.181 C 240.750 38.705,246.491 39.170,247.242 39.855 C 247.498 40.090,247.725 40.021,247.517 39.771 C 247.413 39.645,247.013 39.491,246.630 39.430 C 246.247 39.369,245.824 39.228,245.691 39.118 C 245.443 38.912,239.540 38.768,238.667 38.947 M187.693 39.389 L 187.328 39.777 187.372 53.985 C 187.416 67.974,187.422 68.197,187.750 68.439 C 188.235 68.797,193.437 68.704,193.670 68.333 C 193.766 68.181,193.829 62.491,193.831 53.801 L 193.833 39.519 193.463 39.259 C 192.784 38.784,188.164 38.887,187.693 39.389 M215.300 39.200 C 215.437 39.337,215.500 40.166,215.500 41.846 C 215.500 44.682,215.459 44.774,214.310 44.509 C 210.936 43.731,207.548 45.283,206.144 48.250 L 205.750 49.083 205.698 58.495 C 205.663 64.814,205.588 67.977,205.469 68.120 C 205.181 68.468,200.069 68.421,199.934 68.070 C 199.725 67.524,199.821 39.745,200.033 39.533 C 200.312 39.254,205.021 39.254,205.300 39.533 C 205.430 39.663,205.500 40.338,205.500 41.456 L 205.500 43.178 206.000 42.667 C 206.275 42.385,206.500 42.094,206.500 42.019 C 206.500 41.719,208.089 40.344,208.892 39.950 C 210.792 39.017,210.832 39.008,213.008 39.004 C 214.418 39.001,215.165 39.065,215.300 39.200 M219.006 39.322 C 218.891 39.537,218.833 44.372,218.833 53.833 C 218.833 63.295,218.891 68.129,219.006 68.344 C 219.166 68.643,219.380 68.667,221.917 68.667 C 224.453 68.667,224.668 68.643,224.827 68.344 C 224.943 68.129,225.000 63.295,225.000 53.833 C 225.000 44.372,224.943 39.537,224.827 39.322 C 224.668 39.024,224.453 39.000,221.917 39.000 C 219.380 39.000,219.166 39.024,219.006 39.322 M172.500 39.526 C 172.500 39.673,172.612 39.886,172.750 40.000 C 172.887 40.114,173.000 40.339,173.000 40.500 C 173.000 40.661,173.112 40.886,173.250 41.000 C 173.568 41.264,173.564 41.183,173.223 40.484 C 172.782 39.580,172.500 39.207,172.500 39.526 M193.467 39.533 C 193.679 39.745,193.775 67.524,193.566 68.070 C 193.435 68.410,188.202 68.468,187.867 68.133 C 187.577 67.844,187.577 39.823,187.867 39.533 C 188.005 39.395,188.867 39.333,190.667 39.333 C 192.467 39.333,193.328 39.395,193.467 39.533 M224.751 39.708 C 224.801 39.915,224.821 46.421,224.796 54.167 L 224.750 68.250 221.917 68.250 L 219.083 68.250 219.037 54.167 C 219.012 46.421,219.032 39.915,219.082 39.708 C 219.172 39.338,219.209 39.333,221.917 39.333 C 224.624 39.333,224.662 39.338,224.751 39.708 M234.619 40.559 C 233.275 41.481,232.341 42.329,231.868 43.056 C 231.620 43.438,231.323 43.849,231.209 43.970 C 231.094 44.091,231.000 44.401,231.000 44.658 C 231.000 44.915,230.887 45.219,230.750 45.333 C 230.410 45.615,230.390 49.482,230.724 50.141 C 230.848 50.384,231.126 50.937,231.343 51.369 C 232.074 52.829,234.672 55.000,235.687 55.000 C 235.781 55.000,235.970 55.112,236.107 55.250 C 236.245 55.387,236.596 55.502,236.887 55.505 C 237.178 55.508,237.562 55.621,237.740 55.755 C 237.918 55.890,238.368 56.003,238.740 56.006 C 239.112 56.009,239.604 56.119,239.833 56.250 C 240.063 56.381,240.588 56.480,241.000 56.469 C 241.544 56.455,241.613 56.431,241.250 56.380 C 240.975 56.342,240.429 56.203,240.036 56.072 C 239.643 55.941,239.108 55.833,238.847 55.833 C 238.585 55.833,238.157 55.721,237.894 55.584 C 237.631 55.447,237.229 55.333,237.000 55.329 C 236.771 55.326,236.438 55.213,236.260 55.078 C 236.082 54.943,235.842 54.833,235.727 54.833 C 234.975 54.833,231.667 52.202,231.667 51.604 C 231.667 51.515,231.567 51.325,231.445 51.180 C 230.420 49.959,230.432 46.116,231.468 44.083 C 232.051 42.939,234.243 40.669,234.769 40.666 C 234.850 40.665,235.142 40.515,235.417 40.333 C 235.692 40.151,235.804 40.004,235.667 40.007 C 235.529 40.010,235.058 40.258,234.619 40.559 M249.214 40.928 C 250.315 41.750,251.916 43.569,252.211 44.333 C 252.276 44.504,252.311 44.467,252.320 44.217 C 252.327 44.015,252.239 43.790,252.125 43.717 C 252.010 43.643,251.814 43.385,251.689 43.142 C 251.387 42.556,250.152 41.315,249.283 40.725 C 248.898 40.464,248.558 40.194,248.528 40.125 C 248.497 40.056,248.360 40.000,248.222 40.000 C 248.085 40.000,248.531 40.417,249.214 40.928 M179.989 41.583 L 179.917 42.083 176.922 42.083 L 173.927 42.083 173.716 41.667 C 173.527 41.294,173.505 41.286,173.502 41.592 C 173.498 42.275,173.761 42.333,176.846 42.333 C 180.018 42.333,180.264 42.268,180.127 41.468 C 180.069 41.134,180.051 41.149,179.989 41.583 M146.841 43.958 C 146.692 44.278,146.614 45.553,146.583 48.167 L 146.539 51.917 146.658 48.583 C 146.724 46.750,146.875 44.891,146.993 44.452 C 147.240 43.542,147.158 43.276,146.841 43.958 M241.375 43.788 C 241.719 43.824,242.281 43.824,242.625 43.788 C 242.969 43.752,242.688 43.723,242.000 43.723 C 241.313 43.723,241.031 43.752,241.375 43.788 M239.224 44.143 C 235.394 45.667,235.836 49.670,239.941 50.643 C 240.294 50.726,240.733 50.847,240.917 50.911 C 241.245 51.026,241.245 51.023,240.926 50.764 C 240.749 50.619,240.450 50.500,240.263 50.500 C 239.828 50.500,238.167 49.815,238.167 49.636 C 238.167 49.561,238.071 49.500,237.954 49.500 C 237.348 49.500,236.472 47.464,236.787 46.788 C 236.882 46.584,237.025 46.251,237.105 46.048 C 237.290 45.577,238.951 44.335,239.405 44.328 C 239.595 44.325,239.896 44.213,240.074 44.078 C 240.502 43.754,240.131 43.783,239.224 44.143 M243.755 44.058 C 243.935 44.182,244.296 44.335,244.556 44.399 C 244.816 44.462,245.138 44.604,245.273 44.715 C 245.831 45.176,246.833 46.244,246.833 46.378 C 246.833 46.457,247.032 46.783,247.276 47.102 L 247.718 47.682 248.901 47.569 C 249.551 47.507,250.271 47.350,250.500 47.219 L 250.917 46.981 250.500 47.073 C 247.871 47.652,247.707 47.629,247.197 46.609 C 246.754 45.721,245.316 44.393,244.637 44.243 C 244.380 44.187,244.128 44.072,244.075 43.987 C 244.023 43.903,243.856 43.833,243.703 43.833 C 243.470 43.833,243.478 43.869,243.755 44.058 M152.908 45.708 C 152.718 47.344,152.725 50.804,152.923 52.333 C 153.053 53.346,153.084 52.723,153.086 49.042 C 153.087 46.544,153.079 44.500,153.068 44.500 C 153.057 44.500,152.985 45.044,152.908 45.708 M252.333 44.803 C 252.333 44.901,252.400 45.021,252.481 45.072 C 252.684 45.197,252.863 46.228,252.739 46.552 C 252.672 46.727,252.374 46.837,251.860 46.878 L 251.083 46.940 251.855 46.970 C 252.848 47.009,253.060 46.766,252.910 45.766 C 252.811 45.103,252.333 44.306,252.333 44.803 M164.868 48.532 C 164.509 48.891,164.595 53.217,164.968 53.555 C 165.229 53.791,165.870 53.834,169.677 53.872 L 174.083 53.917 174.025 55.080 C 173.992 55.719,173.861 56.392,173.733 56.575 C 173.605 56.758,173.503 57.097,173.507 57.329 C 173.520 58.056,174.011 56.566,174.189 55.262 C 174.424 53.535,174.789 53.667,169.776 53.667 C 164.495 53.667,164.975 53.948,165.037 50.894 L 165.083 48.583 172.667 48.583 L 180.250 48.583 180.250 52.000 C 180.250 57.832,178.641 62.513,175.965 64.468 C 175.800 64.588,175.423 64.910,175.125 65.185 C 174.460 65.796,172.922 66.843,172.267 67.128 C 172.001 67.244,171.819 67.374,171.863 67.418 C 171.935 67.490,172.601 67.181,173.643 66.591 C 174.868 65.897,178.000 62.766,178.000 62.235 C 178.000 62.166,178.107 61.991,178.238 61.846 C 178.516 61.539,179.500 59.595,179.500 59.354 C 179.500 59.263,179.589 58.977,179.698 58.719 C 180.205 57.517,180.383 55.859,180.400 52.167 L 180.417 48.417 172.743 48.373 C 166.914 48.340,165.021 48.379,164.868 48.532 M242.108 51.167 C 242.580 51.236,243.049 51.344,243.150 51.407 C 243.251 51.469,243.690 51.582,244.125 51.657 C 245.103 51.826,246.968 52.301,247.417 52.494 C 247.600 52.573,248.181 52.808,248.708 53.016 C 249.235 53.224,249.667 53.448,249.667 53.513 C 249.667 53.577,249.854 53.678,250.083 53.735 C 250.312 53.792,250.907 54.254,251.406 54.761 C 254.163 57.563,254.219 61.950,251.539 65.131 C 250.237 66.677,247.010 68.500,245.577 68.500 C 245.138 68.500,243.696 68.984,243.581 69.170 C 243.534 69.246,244.059 69.579,244.746 69.910 C 249.477 72.185,248.004 78.285,242.417 79.552 C 242.204 79.601,242.274 79.635,242.611 79.647 C 242.902 79.658,243.352 79.558,243.611 79.425 C 243.871 79.292,244.196 79.139,244.333 79.085 C 245.245 78.726,247.163 76.898,247.172 76.379 C 247.175 76.216,247.287 75.938,247.422 75.760 C 248.436 74.420,246.862 70.000,245.371 70.000 C 245.281 70.000,245.114 69.887,245.000 69.750 C 244.886 69.612,244.619 69.500,244.406 69.500 C 243.818 69.500,243.765 69.208,244.330 69.084 C 244.605 69.024,244.872 68.905,244.925 68.821 C 244.977 68.736,245.336 68.667,245.723 68.667 C 246.109 68.667,246.574 68.564,246.755 68.438 C 246.935 68.312,247.327 68.156,247.625 68.091 C 247.923 68.027,248.167 67.910,248.167 67.833 C 248.167 67.756,248.392 67.644,248.667 67.583 C 248.942 67.523,249.167 67.423,249.167 67.361 C 249.167 67.299,249.406 67.142,249.698 67.013 C 251.266 66.319,253.500 63.059,253.500 61.464 C 253.500 61.036,253.575 60.640,253.667 60.583 C 253.758 60.527,253.833 60.189,253.833 59.833 C 253.833 59.477,253.758 59.140,253.667 59.083 C 253.575 59.027,253.500 58.680,253.500 58.313 C 253.500 56.571,251.578 54.213,249.250 53.099 C 248.517 52.748,247.789 52.397,247.632 52.317 C 247.476 52.238,247.030 52.122,246.642 52.060 C 246.254 51.998,245.744 51.847,245.510 51.725 C 245.275 51.602,244.811 51.502,244.477 51.501 C 244.144 51.500,243.657 51.388,243.394 51.251 C 243.131 51.114,242.542 51.011,242.083 51.022 L 241.250 51.042 242.108 51.167 M146.694 53.000 C 146.683 53.612,146.766 54.028,146.944 54.250 L 147.212 54.583 147.087 54.250 C 147.018 54.067,146.905 53.504,146.836 53.000 L 146.710 52.083 146.694 53.000 M153.242 54.000 C 153.305 54.229,153.426 54.696,153.511 55.036 C 153.721 55.874,154.549 57.602,154.628 57.365 C 154.663 57.261,154.573 57.007,154.429 56.801 C 154.285 56.594,154.167 56.299,154.167 56.143 C 154.167 55.988,154.087 55.834,153.989 55.802 C 153.892 55.769,153.768 55.407,153.715 54.996 C 153.662 54.586,153.508 54.100,153.373 53.917 C 153.138 53.596,153.133 53.599,153.242 54.000 M147.186 55.510 C 147.175 55.836,147.285 56.249,147.430 56.426 C 147.690 56.745,147.692 56.745,147.574 56.417 C 147.509 56.233,147.399 55.821,147.330 55.500 L 147.205 54.917 147.186 55.510 M242.312 56.719 C 242.473 56.916,242.771 56.994,243.312 56.979 L 244.083 56.958 243.417 56.837 C 243.050 56.770,242.600 56.653,242.417 56.576 C 242.120 56.453,242.108 56.468,242.312 56.719 M147.674 57.271 C 147.670 57.558,147.779 57.886,147.917 58.000 C 148.054 58.114,148.167 58.325,148.167 58.468 C 148.167 58.724,148.804 60.171,148.989 60.333 C 149.041 60.379,149.271 60.776,149.500 61.216 C 149.729 61.656,150.123 62.242,150.375 62.518 C 150.627 62.794,150.833 63.056,150.833 63.099 C 150.833 63.187,152.527 64.862,153.266 65.504 C 153.928 66.080,154.678 66.544,154.780 66.442 C 154.827 66.395,154.539 66.152,154.141 65.900 C 152.846 65.083,150.619 62.743,149.715 61.249 C 149.308 60.576,148.464 58.905,148.327 58.500 C 148.249 58.271,148.072 57.783,147.933 57.417 L 147.681 56.750 147.674 57.271 M244.317 57.230 C 244.422 57.356,244.735 57.505,245.013 57.561 C 245.292 57.617,245.619 57.757,245.741 57.873 C 245.863 57.989,246.152 58.220,246.383 58.387 C 246.614 58.554,246.849 58.873,246.905 59.095 C 246.961 59.318,247.080 59.500,247.170 59.500 C 247.442 59.500,247.353 60.770,247.042 61.342 C 246.604 62.144,246.179 62.562,245.167 63.185 L 244.250 63.749 241.556 63.749 C 239.086 63.750,238.934 63.767,239.723 63.951 C 245.898 65.395,250.447 59.723,245.033 57.328 C 244.152 56.939,244.065 56.927,244.317 57.230 M154.667 57.742 C 154.667 58.532,157.572 61.361,159.150 62.108 C 160.767 62.873,162.530 63.394,161.907 62.922 C 161.729 62.787,161.404 62.675,161.185 62.672 C 160.823 62.667,160.342 62.477,158.692 61.685 C 157.865 61.288,156.119 59.631,155.424 58.584 C 154.875 57.756,154.667 57.525,154.667 57.742 M173.071 58.208 C 172.563 59.821,169.485 62.312,167.635 62.608 C 167.282 62.664,166.952 62.776,166.903 62.855 C 166.854 62.935,166.649 63.009,166.448 63.019 C 166.198 63.033,166.169 63.061,166.355 63.111 C 166.983 63.278,169.888 62.040,171.039 61.116 C 172.026 60.322,173.765 57.833,173.332 57.833 C 173.253 57.833,173.136 58.002,173.071 58.208 M234.732 59.862 C 234.654 59.989,234.699 60.023,234.863 59.960 C 235.201 59.831,235.430 59.995,235.739 60.587 C 235.972 61.033,235.998 61.046,235.999 60.708 C 236.001 60.016,235.036 59.371,234.732 59.862 M231.583 60.259 L 231.083 60.503 231.750 60.399 C 232.117 60.342,232.792 60.240,233.250 60.171 L 234.083 60.047 233.083 60.031 C 232.512 60.022,231.869 60.120,231.583 60.259 M229.702 60.708 C 229.583 60.853,229.599 61.069,229.755 61.417 L 229.979 61.917 229.948 61.335 C 229.919 60.793,229.956 60.746,230.500 60.649 L 231.083 60.544 230.479 60.522 C 230.146 60.510,229.797 60.594,229.702 60.708 M236.000 61.298 C 236.000 61.613,237.394 63.024,238.020 63.344 C 238.880 63.782,238.844 63.615,237.958 63.059 C 237.160 62.558,236.507 61.984,236.503 61.780 C 236.499 61.587,236.000 61.109,236.000 61.298 M230.014 62.438 C 230.006 62.725,230.112 63.053,230.250 63.167 C 230.387 63.281,230.500 63.481,230.500 63.610 C 230.500 64.667,234.542 68.149,235.796 68.172 C 235.954 68.175,236.229 68.287,236.407 68.422 C 236.585 68.557,236.980 68.667,237.284 68.667 C 237.589 68.667,237.968 68.737,238.127 68.823 C 238.286 68.909,238.630 69.025,238.890 69.080 C 239.260 69.159,239.336 69.243,239.238 69.465 C 239.169 69.622,239.087 70.050,239.056 70.417 C 239.004 71.032,239.019 71.014,239.255 70.177 C 239.579 69.022,239.432 68.849,237.880 68.568 C 234.211 67.903,231.077 65.380,230.160 62.351 C 230.030 61.922,230.028 61.923,230.014 62.438 M163.547 63.289 C 163.985 63.324,164.660 63.323,165.047 63.288 C 165.434 63.254,165.075 63.225,164.250 63.226 C 163.425 63.226,163.109 63.255,163.547 63.289 M155.000 66.683 C 155.000 66.854,156.474 67.581,156.588 67.467 C 156.630 67.426,156.289 67.199,155.832 66.963 C 155.374 66.728,155.000 66.601,155.000 66.683 M157.093 67.745 C 157.271 67.879,157.672 68.040,157.984 68.102 C 158.297 68.163,158.747 68.315,158.984 68.439 C 159.222 68.563,159.758 68.665,160.175 68.666 C 160.592 68.666,161.026 68.759,161.138 68.872 C 161.426 69.160,165.681 69.257,166.667 68.998 C 167.079 68.890,167.847 68.750,168.373 68.686 C 168.898 68.623,169.420 68.480,169.531 68.369 C 169.642 68.258,169.887 68.164,170.075 68.161 C 170.495 68.154,171.860 67.514,171.472 67.506 C 171.319 67.503,170.981 67.604,170.722 67.732 C 169.859 68.155,169.095 68.370,167.917 68.522 C 167.275 68.605,166.533 68.747,166.267 68.837 C 164.862 69.312,158.262 68.424,157.425 67.647 C 157.338 67.566,157.155 67.500,157.018 67.500 C 156.832 67.500,156.851 67.561,157.093 67.745 M239.019 71.774 C 238.996 72.210,239.285 72.333,240.334 72.333 C 242.204 72.333,243.345 74.180,242.189 75.336 C 241.916 75.610,241.518 75.836,241.304 75.839 C 241.091 75.842,240.771 75.954,240.593 76.089 C 240.166 76.411,240.403 76.398,241.323 76.047 C 243.733 75.126,243.089 72.175,240.475 72.164 C 239.654 72.161,239.194 72.001,239.112 71.691 C 239.060 71.495,239.033 71.519,239.019 71.774 M238.536 76.625 C 238.471 76.785,238.417 77.517,238.417 78.250 C 238.417 80.145,238.432 80.167,239.795 80.167 C 240.421 80.167,241.005 80.099,241.092 80.016 C 241.179 79.933,241.400 79.823,241.583 79.771 C 241.903 79.681,241.641 79.704,239.713 79.939 C 238.696 80.063,238.500 79.805,238.500 78.343 C 238.500 76.828,238.629 76.526,239.311 76.454 L 239.917 76.389 239.286 76.361 C 238.825 76.341,238.624 76.412,238.536 76.625 " stroke="none" fill="#043c31" fill-rule="evenodd"></path><path id="path3" d="M175.917 34.000 C 176.368 34.458,176.775 34.833,176.821 34.833 C 176.867 34.833,176.535 34.458,176.083 34.000 C 175.632 33.542,175.225 33.167,175.179 33.167 C 175.133 33.167,175.465 33.542,175.917 34.000 M163.711 34.786 C 163.964 34.825,164.339 34.824,164.544 34.784 C 164.749 34.744,164.542 34.713,164.083 34.714 C 163.625 34.716,163.457 34.748,163.711 34.786 M239.627 39.118 C 239.834 39.158,240.134 39.156,240.294 39.115 C 240.453 39.073,240.283 39.040,239.917 39.042 C 239.550 39.044,239.420 39.078,239.627 39.118 M243.627 39.118 C 243.834 39.158,244.134 39.156,244.294 39.115 C 244.453 39.073,244.283 39.040,243.917 39.042 C 243.550 39.044,243.420 39.078,243.627 39.118 M187.867 39.533 C 187.640 39.760,187.566 67.918,187.792 68.058 C 187.860 68.100,187.917 61.711,187.917 53.859 L 187.917 39.583 190.667 39.494 L 193.417 39.404 190.742 39.369 C 188.842 39.344,188.009 39.391,187.867 39.533 M199.979 39.625 C 199.775 39.885,199.780 39.893,200.023 39.704 C 200.222 39.548,200.956 39.503,202.773 39.537 L 205.250 39.583 205.342 41.333 L 205.435 43.083 205.467 41.408 C 205.489 40.288,205.434 39.667,205.300 39.533 C 204.947 39.180,200.264 39.261,199.979 39.625 M220.550 39.458 C 221.356 39.488,222.631 39.488,223.383 39.457 C 224.135 39.426,223.475 39.401,221.917 39.402 C 220.358 39.402,219.743 39.427,220.550 39.458 M179.820 41.542 C 179.771 41.900,179.796 42.104,179.880 42.020 C 179.960 41.940,179.999 41.659,179.966 41.395 C 179.911 40.955,179.900 40.966,179.820 41.542 M146.714 46.750 C 146.716 47.208,146.748 47.376,146.786 47.123 C 146.825 46.869,146.824 46.494,146.784 46.289 C 146.744 46.084,146.713 46.292,146.714 46.750 M247.647 47.380 C 247.727 47.460,248.008 47.499,248.271 47.466 C 248.712 47.411,248.700 47.400,248.125 47.320 C 247.767 47.271,247.563 47.296,247.647 47.380 M146.709 51.583 C 146.711 51.950,146.745 52.080,146.785 51.873 C 146.824 51.666,146.823 51.366,146.781 51.206 C 146.739 51.047,146.707 51.217,146.709 51.583 M165.005 53.105 C 164.991 53.618,165.478 53.672,169.687 53.625 L 173.917 53.577 169.633 53.539 C 165.754 53.504,165.334 53.472,165.180 53.208 C 165.087 53.048,165.008 53.001,165.005 53.105 M163.458 68.956 C 163.940 68.990,164.727 68.990,165.208 68.956 C 165.690 68.923,165.296 68.895,164.333 68.895 C 163.371 68.895,162.977 68.923,163.458 68.956 M238.555 78.250 C 238.555 78.892,238.586 79.134,238.622 78.788 C 238.658 78.442,238.657 77.917,238.620 77.621 C 238.583 77.325,238.554 77.608,238.555 78.250 M238.816 79.883 C 238.894 79.961,239.211 79.998,239.520 79.966 C 240.069 79.910,240.066 79.906,239.379 79.825 C 238.992 79.779,238.739 79.806,238.816 79.883 " stroke="none" fill="#045444" fill-rule="evenodd"></path><path id="path4" d="M189.583 28.485 C 189.281 28.554,189.642 28.595,190.500 28.591 C 192.068 28.583,193.136 29.052,193.533 29.923 C 193.636 30.149,193.783 30.333,193.860 30.333 C 193.937 30.333,194.000 30.937,194.000 31.675 L 194.000 33.016 193.188 33.828 C 191.559 35.457,188.579 35.135,187.657 33.230 C 186.960 31.790,187.540 29.441,188.681 29.079 C 188.857 29.023,189.000 28.906,189.000 28.818 C 189.000 28.635,188.189 29.122,187.867 29.498 C 185.399 32.383,188.862 36.419,192.333 34.703 C 193.705 34.025,194.154 33.271,194.161 31.636 L 194.167 30.356 193.359 29.526 C 192.293 28.432,191.180 28.125,189.583 28.485 M220.783 28.454 C 220.024 28.568,218.574 30.139,218.437 30.995 C 217.736 35.378,224.111 36.796,225.447 32.555 C 226.263 29.969,223.991 27.971,220.783 28.454 M222.890 28.609 C 223.332 28.682,223.795 28.959,224.390 29.506 L 225.250 30.297 225.250 31.607 C 225.250 33.478,224.356 34.581,222.678 34.780 C 218.649 35.257,217.073 31.477,220.221 28.888 C 220.609 28.569,221.856 28.439,222.890 28.609 M162.083 29.354 C 161.442 29.434,160.804 29.523,160.667 29.552 C 160.529 29.581,161.992 29.602,163.917 29.600 C 167.369 29.594,167.396 29.592,165.917 29.395 C 164.170 29.162,163.665 29.157,162.083 29.354 M159.167 29.927 C 158.658 30.119,158.637 30.148,159.000 30.151 C 159.229 30.153,159.604 30.048,159.833 29.917 C 160.347 29.623,159.954 29.629,159.167 29.927 M168.167 29.925 C 169.141 30.232,169.576 30.223,168.856 29.910 C 168.547 29.776,168.097 29.672,167.856 29.678 C 167.513 29.687,167.581 29.741,168.167 29.925 M157.500 30.455 C 154.877 31.656,153.920 32.293,152.182 33.995 C 150.457 35.684,149.182 37.703,148.127 40.417 C 147.737 41.421,147.269 43.158,147.363 43.252 C 147.409 43.298,147.540 43.016,147.656 42.626 C 147.771 42.236,148.019 41.429,148.206 40.833 C 148.700 39.261,150.080 36.504,150.375 36.501 C 150.444 36.500,150.500 36.390,150.500 36.256 C 150.500 35.991,153.502 32.894,154.145 32.495 C 154.363 32.360,154.625 32.174,154.729 32.081 C 154.897 31.930,156.385 31.184,158.000 30.442 C 158.321 30.295,158.471 30.177,158.333 30.181 C 158.196 30.185,157.821 30.308,157.500 30.455 M169.926 30.411 C 170.104 30.546,170.358 30.658,170.490 30.661 C 170.659 30.665,170.635 30.594,170.407 30.422 C 170.229 30.287,169.975 30.175,169.843 30.172 C 169.674 30.168,169.698 30.239,169.926 30.411 M170.833 30.729 C 170.833 30.763,171.391 31.063,172.074 31.396 C 172.756 31.728,173.360 32.075,173.417 32.167 C 173.473 32.258,173.606 32.333,173.712 32.333 C 174.057 32.333,173.458 31.892,172.267 31.269 C 171.201 30.711,170.833 30.572,170.833 30.729 M174.000 32.467 C 174.000 32.556,174.170 32.740,174.377 32.876 C 175.711 33.749,177.409 35.832,178.455 37.878 C 178.935 38.816,179.329 39.484,179.330 39.361 C 179.335 39.013,178.197 36.837,177.529 35.917 C 176.420 34.389,174.000 32.024,174.000 32.467 M161.208 34.839 C 161.002 34.921,160.833 35.038,160.833 35.097 C 160.833 35.157,161.002 35.150,161.208 35.083 C 161.415 35.015,161.996 34.905,162.500 34.838 L 163.417 34.716 162.500 34.702 C 161.996 34.694,161.415 34.756,161.208 34.839 M165.583 34.818 C 166.042 34.888,166.642 35.004,166.917 35.077 C 167.330 35.187,167.380 35.171,167.208 34.988 C 167.082 34.854,166.551 34.751,165.875 34.729 C 164.802 34.693,164.789 34.697,165.583 34.818 M159.740 35.411 C 159.562 35.546,159.322 35.658,159.207 35.661 C 159.026 35.666,157.754 36.491,157.038 37.066 C 156.369 37.605,155.046 39.175,154.717 39.821 C 154.552 40.146,154.323 40.512,154.208 40.634 C 154.094 40.757,154.000 40.977,154.000 41.123 C 154.000 41.463,154.016 41.443,154.672 40.250 C 155.868 38.074,158.274 36.005,160.417 35.308 C 160.744 35.202,160.744 35.200,160.407 35.183 C 160.218 35.174,159.918 35.277,159.740 35.411 M168.250 35.552 C 169.783 36.236,170.210 36.528,171.318 37.651 C 172.334 38.682,173.399 40.422,173.745 41.619 C 173.937 42.281,179.713 42.443,179.773 41.788 C 179.791 41.582,179.776 41.569,179.721 41.747 C 179.522 42.388,173.833 42.016,173.833 41.361 C 173.833 41.162,173.168 39.692,172.953 39.417 C 172.882 39.325,172.543 38.866,172.200 38.397 C 171.858 37.928,171.316 37.329,170.997 37.066 C 170.678 36.804,170.379 36.540,170.333 36.480 C 170.151 36.243,167.996 35.167,167.715 35.173 C 167.551 35.177,167.792 35.347,168.250 35.552 M213.250 39.158 L 215.083 39.250 215.129 41.750 L 215.175 44.250 212.796 44.255 C 210.891 44.258,210.259 44.320,209.625 44.566 C 208.416 45.035,208.682 45.180,209.924 44.729 C 211.088 44.307,213.268 44.191,214.530 44.484 C 215.410 44.688,215.542 44.272,215.472 41.510 C 215.406 38.881,215.511 38.995,213.167 39.035 L 211.417 39.066 213.250 39.158 M241.213 39.123 C 241.652 39.157,242.327 39.157,242.713 39.122 C 243.100 39.087,242.742 39.059,241.917 39.059 C 241.092 39.060,240.775 39.088,241.213 39.123 M210.250 39.423 C 209.576 39.731,210.145 39.732,210.856 39.423 C 211.229 39.261,211.305 39.182,211.083 39.187 C 210.900 39.191,210.525 39.297,210.250 39.423 M238.250 39.421 C 237.335 39.723,238.076 39.722,239.417 39.420 L 240.417 39.195 239.667 39.198 C 239.254 39.200,238.617 39.300,238.250 39.421 M244.500 39.423 C 245.916 39.715,246.448 39.707,245.500 39.408 C 245.088 39.278,244.450 39.178,244.083 39.186 C 243.490 39.198,243.536 39.224,244.500 39.423 M187.944 39.611 C 187.806 39.750,187.796 67.708,187.934 68.070 C 188.085 68.461,193.014 68.462,193.405 68.071 C 193.673 67.804,193.828 40.447,193.566 39.764 C 193.460 39.489,188.209 39.347,187.944 39.611 M200.037 39.696 C 199.769 39.964,199.738 67.511,200.006 68.011 C 200.262 68.489,204.960 68.505,205.391 68.029 C 205.684 67.704,205.835 49.443,205.542 49.736 C 205.473 49.805,205.379 53.923,205.333 58.889 L 205.250 67.917 202.708 67.963 L 200.167 68.009 200.167 53.838 L 200.167 39.667 202.667 39.667 L 205.167 39.667 205.169 41.542 C 205.172 43.511,205.348 44.176,205.717 43.610 C 205.827 43.441,206.195 42.926,206.535 42.464 C 206.875 42.003,207.175 41.577,207.201 41.518 C 207.299 41.303,208.764 40.226,209.230 40.026 C 209.494 39.913,209.670 39.781,209.620 39.731 C 209.313 39.424,207.346 40.927,206.651 42.000 C 206.360 42.448,206.020 42.854,205.895 42.902 C 205.769 42.950,205.667 43.117,205.667 43.273 C 205.667 43.428,205.610 43.499,205.542 43.431 C 205.473 43.362,205.379 42.468,205.333 41.445 L 205.250 39.583 202.746 39.538 C 200.939 39.504,200.185 39.549,200.037 39.696 M219.078 39.704 C 219.034 39.821,219.017 46.217,219.041 53.917 L 219.085 67.917 219.126 53.792 L 219.167 39.667 221.916 39.667 L 224.665 39.667 224.709 53.750 L 224.753 67.833 224.751 53.708 L 224.750 39.583 221.955 39.538 C 219.810 39.503,219.140 39.541,219.078 39.704 M179.359 39.917 C 179.359 40.100,179.460 40.512,179.583 40.833 C 179.725 41.200,179.808 41.293,179.808 41.083 C 179.808 40.900,179.707 40.487,179.583 40.167 C 179.442 39.800,179.359 39.707,179.359 39.917 M193.459 53.740 C 193.493 64.821,193.458 67.757,193.293 67.862 C 193.178 67.935,191.940 67.996,190.542 67.997 L 188.000 68.000 188.000 53.829 L 188.000 39.658 190.708 39.704 L 193.417 39.750 193.459 53.740 M236.667 39.860 C 234.318 40.823,232.698 42.110,231.625 43.865 C 231.291 44.410,231.272 44.500,231.489 44.500 C 231.574 44.500,231.697 44.331,231.761 44.125 C 231.897 43.687,232.735 42.579,233.333 42.044 C 234.061 41.394,234.141 41.337,234.954 40.906 C 235.392 40.673,235.821 40.411,235.908 40.325 C 235.995 40.238,236.183 40.163,236.325 40.159 C 236.671 40.149,237.652 39.694,237.333 39.691 C 237.196 39.690,236.896 39.766,236.667 39.860 M246.750 39.923 C 247.025 40.049,247.362 40.152,247.500 40.153 C 247.637 40.153,247.498 40.044,247.189 39.910 C 246.480 39.602,246.076 39.614,246.750 39.923 M247.833 40.245 C 247.833 40.288,248.228 40.575,248.710 40.884 C 250.174 41.820,252.151 44.183,252.173 45.022 C 252.179 45.289,252.652 46.160,252.661 45.922 C 252.671 45.643,252.120 44.261,251.888 43.987 C 251.766 43.842,251.667 43.642,251.667 43.542 C 251.667 43.255,249.492 41.096,248.712 40.608 C 248.010 40.169,247.833 40.096,247.833 40.245 M153.680 41.808 C 153.581 41.993,153.500 42.232,153.500 42.339 C 153.500 42.446,153.381 42.783,153.236 43.090 C 153.091 43.396,152.997 43.776,153.027 43.935 C 153.058 44.094,153.284 43.631,153.529 42.905 C 153.969 41.603,154.031 41.153,153.680 41.808 M241.208 43.623 C 241.644 43.657,242.356 43.657,242.792 43.623 C 243.227 43.588,242.871 43.560,242.000 43.560 C 241.129 43.560,240.773 43.588,241.208 43.623 M147.041 44.600 C 146.927 45.152,146.842 45.936,146.853 46.343 C 146.863 46.750,146.894 46.971,146.921 46.833 C 147.194 45.431,147.361 44.184,147.310 43.919 C 147.276 43.742,147.155 44.048,147.041 44.600 M239.240 43.911 C 238.825 44.226,238.983 44.230,239.689 43.923 C 240.103 43.744,240.160 43.678,239.907 43.673 C 239.718 43.670,239.418 43.777,239.240 43.911 M244.144 43.923 C 244.851 44.230,245.009 44.226,244.593 43.911 C 244.415 43.777,244.115 43.670,243.926 43.673 C 243.673 43.678,243.731 43.744,244.144 43.923 M237.775 44.702 C 237.058 45.287,236.332 46.339,236.335 46.788 C 236.336 46.951,236.543 46.671,236.794 46.167 C 237.132 45.488,237.466 45.110,238.081 44.708 C 238.539 44.410,238.801 44.169,238.665 44.172 C 238.528 44.175,238.128 44.414,237.775 44.702 M245.434 44.542 C 246.188 45.132,246.516 45.495,247.111 46.399 C 247.417 46.863,247.667 47.118,247.667 46.966 C 247.667 46.815,247.554 46.578,247.417 46.440 C 247.279 46.303,247.167 46.129,247.167 46.054 C 247.167 45.864,245.327 44.167,245.121 44.167 C 245.030 44.167,245.171 44.335,245.434 44.542 M152.703 45.421 C 152.424 46.890,152.459 51.484,152.758 52.750 C 152.964 53.623,152.984 53.655,152.915 53.000 C 152.676 50.720,152.638 47.639,152.830 46.126 C 153.071 44.237,153.001 43.850,152.703 45.421 M230.956 45.626 C 230.577 46.903,230.600 48.663,231.011 49.833 L 231.333 50.750 231.231 50.000 C 231.174 49.587,231.062 49.124,230.981 48.969 C 230.747 48.525,230.809 46.885,231.096 45.897 C 231.241 45.400,231.333 44.917,231.302 44.823 C 231.271 44.729,231.115 45.090,230.956 45.626 M208.010 45.491 C 207.804 45.670,207.583 45.839,207.519 45.866 C 207.299 45.961,206.167 47.547,206.167 47.760 C 206.167 47.877,206.090 47.998,205.996 48.029 C 205.902 48.060,205.791 48.385,205.749 48.751 C 205.683 49.326,205.691 49.348,205.811 48.917 C 206.113 47.821,207.112 46.403,208.127 45.625 C 208.457 45.373,208.649 45.167,208.555 45.167 C 208.461 45.167,208.216 45.313,208.010 45.491 M252.513 46.274 C 252.506 46.378,252.144 46.544,251.708 46.642 L 250.917 46.820 251.717 46.763 C 252.600 46.700,252.743 46.626,252.614 46.302 C 252.561 46.171,252.521 46.160,252.513 46.274 M248.917 47.102 L 248.250 47.336 248.917 47.252 C 249.283 47.206,249.883 47.102,250.250 47.020 L 250.917 46.872 250.250 46.870 C 249.883 46.869,249.283 46.973,248.917 47.102 M146.729 49.250 C 146.729 50.258,146.757 50.649,146.790 50.119 C 146.823 49.588,146.823 48.763,146.789 48.286 C 146.756 47.808,146.729 48.242,146.729 49.250 M236.348 47.814 C 236.296 49.242,238.426 50.712,241.417 51.311 C 241.875 51.402,242.550 51.556,242.917 51.651 C 243.283 51.747,243.771 51.819,244.000 51.810 C 244.323 51.798,244.285 51.767,243.833 51.669 C 243.247 51.543,242.430 51.346,240.583 50.884 C 238.152 50.276,236.961 49.391,236.491 47.843 C 236.362 47.417,236.362 47.417,236.348 47.814 M165.208 48.610 C 165.057 48.671,165.000 49.275,165.000 50.815 C 165.000 53.739,164.546 53.480,169.784 53.536 C 172.465 53.565,174.216 53.649,174.320 53.753 C 174.874 54.308,173.662 58.156,172.431 59.750 C 171.960 60.360,171.709 60.605,170.621 61.513 C 170.417 61.683,170.340 61.825,170.449 61.828 C 170.915 61.841,172.808 59.662,173.473 58.347 C 174.294 56.724,174.813 54.606,174.599 53.753 L 174.495 53.339 169.956 53.294 L 165.417 53.250 165.370 50.958 L 165.324 48.667 172.683 48.667 L 180.041 48.667 179.975 52.708 C 179.932 55.274,179.961 56.476,180.053 56.000 C 180.322 54.612,180.389 48.804,180.138 48.645 C 179.906 48.498,165.570 48.465,165.208 48.610 M231.617 51.351 C 232.085 52.288,233.076 53.325,233.996 53.840 L 234.583 54.169 234.000 53.711 C 233.192 53.078,231.833 51.626,231.833 51.397 C 231.833 51.293,231.723 51.116,231.588 51.004 C 231.390 50.839,231.396 50.907,231.617 51.351 M146.912 52.333 C 146.946 53.021,147.056 53.771,147.157 54.000 C 147.353 54.443,147.338 54.259,146.991 52.000 C 146.857 51.130,146.853 51.147,146.912 52.333 M244.917 52.075 C 245.192 52.209,245.642 52.314,245.917 52.309 L 246.417 52.299 245.833 52.140 C 244.672 51.824,244.354 51.801,244.917 52.075 M246.833 52.583 C 247.063 52.714,247.400 52.821,247.583 52.821 C 247.813 52.820,247.743 52.745,247.356 52.577 C 246.641 52.266,246.286 52.271,246.833 52.583 M248.000 52.888 C 248.000 52.919,248.569 53.232,249.265 53.585 C 251.052 54.492,252.201 55.721,252.849 57.417 C 252.954 57.692,253.075 57.823,253.117 57.708 C 253.257 57.330,252.007 55.358,251.172 54.638 C 250.168 53.774,248.000 52.578,248.000 52.888 M153.013 54.106 C 153.006 54.302,153.110 54.714,153.243 55.023 C 153.559 55.748,153.564 55.149,153.250 54.333 C 153.083 53.900,153.022 53.842,153.013 54.106 M234.926 54.411 C 235.350 54.732,235.597 54.735,235.333 54.417 C 235.219 54.279,235.008 54.167,234.864 54.167 C 234.655 54.167,234.667 54.215,234.926 54.411 M147.350 55.023 C 147.341 55.264,147.449 55.714,147.591 56.023 C 147.867 56.622,147.845 56.337,147.526 55.167 C 147.385 54.649,147.366 54.633,147.350 55.023 M236.044 54.909 C 236.670 55.236,238.269 55.681,239.083 55.755 L 239.750 55.816 239.167 55.669 C 237.754 55.313,237.048 55.102,236.558 54.892 C 235.858 54.592,235.461 54.605,236.044 54.909 M153.500 55.754 C 153.500 56.041,154.923 58.737,155.333 59.228 C 156.573 60.713,157.714 61.654,159.062 62.303 C 160.778 63.129,161.326 63.334,161.797 63.326 C 162.095 63.321,161.850 63.188,161.083 62.938 C 157.966 61.920,155.881 60.161,154.439 57.333 C 153.598 55.682,153.500 55.518,153.500 55.754 M240.417 56.088 C 240.783 56.209,241.271 56.308,241.500 56.309 C 241.785 56.311,241.680 56.236,241.167 56.075 C 240.754 55.945,240.267 55.845,240.083 55.853 C 239.892 55.862,240.033 55.962,240.417 56.088 M242.750 56.573 C 243.117 56.691,243.717 56.862,244.083 56.954 C 244.450 57.046,244.900 57.180,245.083 57.252 C 245.340 57.352,245.374 57.336,245.231 57.180 C 245.129 57.069,244.491 56.834,243.814 56.659 C 242.437 56.301,241.721 56.244,242.750 56.573 M147.844 56.869 C 147.800 58.027,150.387 62.410,152.163 64.190 C 153.714 65.743,157.513 68.000,158.578 68.000 C 158.730 68.000,158.988 68.071,159.150 68.158 C 160.237 68.740,164.650 68.986,167.167 68.605 C 168.533 68.398,168.467 68.393,165.333 68.463 C 161.568 68.546,159.650 68.313,157.891 67.559 C 157.603 67.435,157.295 67.333,157.208 67.333 C 155.796 67.333,151.207 63.415,149.893 61.087 C 149.411 60.234,148.513 58.331,148.200 57.500 C 148.010 56.996,147.850 56.712,147.844 56.869 M179.500 57.750 C 179.383 58.168,179.325 58.547,179.371 58.593 C 179.417 58.639,179.550 58.334,179.667 57.917 C 179.784 57.499,179.842 57.120,179.796 57.074 C 179.750 57.028,179.617 57.332,179.500 57.750 M246.120 57.837 C 250.254 60.878,245.297 65.162,239.083 63.918 C 238.583 63.818,238.583 63.818,239.144 64.075 C 239.939 64.441,243.056 64.429,244.219 64.056 C 247.738 62.926,248.808 59.793,246.341 57.840 C 245.990 57.561,245.642 57.333,245.568 57.333 C 245.495 57.333,245.743 57.560,246.120 57.837 M253.208 59.917 C 253.209 61.713,253.223 61.809,253.346 60.857 C 253.422 60.275,253.421 59.375,253.345 58.857 C 253.228 58.057,253.207 58.215,253.208 59.917 M179.008 59.346 C 178.711 60.109,178.114 61.376,177.955 61.583 C 177.885 61.675,177.437 62.275,176.960 62.917 C 176.483 63.558,175.903 64.251,175.672 64.456 C 174.188 65.767,172.569 66.768,170.770 67.487 C 170.506 67.593,170.339 67.728,170.398 67.787 C 170.457 67.846,170.594 67.806,170.703 67.697 C 170.811 67.589,171.016 67.499,171.158 67.497 C 171.896 67.489,174.669 65.672,175.987 64.333 C 177.462 62.834,179.485 59.539,179.290 58.954 C 179.258 58.856,179.131 59.033,179.008 59.346 M234.879 60.116 C 235.041 60.158,235.360 60.559,235.587 61.007 C 236.241 62.297,238.113 64.109,238.448 63.774 C 238.494 63.729,238.301 63.572,238.020 63.427 C 237.205 63.005,236.171 61.852,235.745 60.889 C 235.427 60.170,235.278 60.004,234.968 60.019 C 234.679 60.034,234.657 60.058,234.879 60.116 M232.167 60.424 C 231.382 60.604,231.334 60.635,231.833 60.640 C 232.154 60.643,232.867 60.544,233.417 60.420 C 234.317 60.217,234.351 60.196,233.750 60.204 C 233.383 60.209,232.671 60.308,232.167 60.424 M230.111 60.778 C 230.050 60.839,230.007 61.083,230.017 61.319 L 230.033 61.750 230.149 61.334 C 230.228 61.050,230.421 60.884,230.757 60.812 L 231.250 60.706 230.736 60.686 C 230.453 60.676,230.172 60.717,230.111 60.778 M169.083 62.346 C 168.533 62.613,168.212 62.833,168.370 62.833 C 168.692 62.833,169.952 62.212,170.094 61.983 C 170.213 61.791,170.252 61.777,169.083 62.346 M230.180 62.129 C 230.136 62.826,232.243 66.000,232.750 66.000 C 232.814 66.000,232.519 65.648,232.095 65.217 C 231.671 64.787,231.280 64.262,231.227 64.051 C 231.174 63.840,231.064 63.667,230.982 63.667 C 230.900 63.667,230.831 63.573,230.829 63.458 C 230.823 63.159,230.196 61.875,230.180 62.129 M252.823 62.437 C 252.370 63.588,252.053 64.138,251.364 64.964 C 249.973 66.635,247.161 68.090,244.690 68.418 C 243.169 68.620,242.741 69.332,243.871 69.784 C 245.081 70.269,246.035 70.833,246.376 71.267 C 246.557 71.496,246.747 71.642,246.799 71.590 C 246.993 71.396,245.625 70.351,244.581 69.897 C 243.033 69.222,243.215 68.825,245.220 68.505 C 247.965 68.066,250.722 66.374,252.153 64.250 C 252.630 63.541,253.213 62.158,253.088 62.032 C 253.046 61.991,252.927 62.173,252.823 62.437 M167.000 63.094 C 166.492 63.286,166.470 63.315,166.833 63.318 C 167.063 63.320,167.438 63.214,167.667 63.083 C 168.181 62.790,167.788 62.796,167.000 63.094 M163.292 63.456 C 163.773 63.490,164.560 63.490,165.042 63.456 C 165.523 63.423,165.129 63.395,164.167 63.395 C 163.204 63.395,162.810 63.423,163.292 63.456 M233.156 66.486 C 233.694 66.900,234.500 67.372,234.500 67.274 C 234.500 67.140,233.111 66.166,232.925 66.170 C 232.829 66.172,232.933 66.314,233.156 66.486 M235.000 67.570 C 235.464 67.850,235.830 67.923,235.575 67.685 C 235.488 67.604,235.229 67.488,235.000 67.428 L 234.583 67.319 235.000 67.570 M169.017 68.014 C 168.325 68.291,168.767 68.369,169.526 68.103 C 170.058 67.916,170.140 67.850,169.833 67.852 C 169.604 67.853,169.237 67.926,169.017 68.014 M236.500 68.154 C 236.912 68.320,237.676 68.508,238.197 68.572 C 239.314 68.709,239.581 68.955,239.428 69.707 C 239.367 70.006,239.281 70.512,239.237 70.833 L 239.157 71.417 239.409 70.750 C 240.015 69.151,239.743 68.593,238.268 68.411 C 237.728 68.344,237.090 68.187,236.851 68.062 C 236.612 67.937,236.267 67.839,236.083 67.843 C 235.891 67.848,236.067 67.979,236.500 68.154 M219.167 68.167 C 219.167 68.271,220.194 68.333,221.917 68.333 C 223.639 68.333,224.667 68.271,224.667 68.167 C 224.667 68.062,223.639 68.000,221.917 68.000 C 220.194 68.000,219.167 68.062,219.167 68.167 M239.211 71.717 C 239.288 71.948,239.994 72.127,240.833 72.128 L 241.417 72.128 240.833 71.998 C 240.512 71.926,240.001 71.789,239.697 71.692 C 239.278 71.559,239.161 71.565,239.211 71.717 M246.919 72.250 C 246.977 72.525,247.093 72.821,247.178 72.908 C 247.430 73.165,247.350 72.630,247.068 72.167 L 246.814 71.750 246.919 72.250 M242.043 72.610 C 242.712 73.086,243.013 73.796,242.887 74.604 C 242.823 75.020,242.839 75.043,243.006 74.778 C 243.434 74.099,242.426 72.167,241.644 72.167 C 241.521 72.167,241.701 72.366,242.043 72.610 M247.381 74.083 C 247.382 74.542,247.415 74.709,247.453 74.456 C 247.491 74.203,247.490 73.828,247.451 73.623 C 247.411 73.418,247.380 73.625,247.381 74.083 M247.017 75.513 C 246.491 76.918,245.390 78.219,244.542 78.439 C 244.335 78.492,244.167 78.603,244.167 78.685 C 244.167 78.766,244.042 78.833,243.889 78.833 C 243.736 78.833,243.662 78.884,243.724 78.946 C 244.320 79.542,247.595 76.036,247.292 75.127 C 247.259 75.026,247.135 75.199,247.017 75.513 M242.412 75.490 C 242.231 75.667,241.708 75.963,241.250 76.147 C 240.677 76.377,240.537 76.485,240.802 76.491 C 241.189 76.500,242.833 75.532,242.833 75.294 C 242.833 75.106,242.775 75.133,242.412 75.490 M238.778 76.611 C 238.717 76.672,238.667 77.387,238.667 78.200 C 238.667 79.947,238.657 79.938,240.371 79.691 L 241.583 79.517 240.417 79.572 C 238.808 79.647,238.833 79.668,238.833 78.257 C 238.833 76.933,238.941 76.741,239.750 76.623 C 240.168 76.562,240.138 76.546,239.569 76.525 C 239.195 76.511,238.839 76.550,238.778 76.611 M242.417 79.256 C 242.038 79.429,241.998 79.485,242.250 79.485 C 242.433 79.485,242.808 79.382,243.083 79.256 C 243.462 79.083,243.502 79.027,243.250 79.027 C 243.067 79.027,242.692 79.130,242.417 79.256 " stroke="none" fill="#045c4c" fill-rule="evenodd"></path></g></svg>